<svg width="87" height="87" viewBox="0 0 87 87" fill="none" xmlns="http://www.w3.org/2000/svg">
<circle cx="43.5" cy="43.5" r="42.5" stroke="#E74141" stroke-width="2"/>
<path d="M48.7765 43C50.1165 42.36 50.9365 41.4 50.9365 39.94C50.9365 36.84 48.1165 35.8 43.1965 35.8C38.3365 35.8 35.0565 36.84 35.0565 41.3H38.6565C38.6565 39.18 39.9765 38.82 43.3965 38.82C46.4965 38.82 47.3365 39.18 47.3365 40.4C47.3365 41.8 46.1565 41.92 41.3965 41.92V44.08C46.2565 44.08 47.3365 44.2 47.3365 45.6C47.3365 46.94 46.2565 47.18 43.3965 47.18C40.3165 47.18 38.6565 46.94 38.6565 44.7H35.0565C35.0565 49.16 38.3365 50.2 43.1965 50.2C48.1165 50.2 50.9365 49.16 50.9365 46.06C50.9365 44.6 50.1165 43.64 48.7765 43Z" fill="#E74141"/>
</svg>
