<svg width="631" height="646" viewBox="0 0 631 646" fill="none" xmlns="http://www.w3.org/2000/svg">
<path opacity="0.0344828" d="M80.5492 151C83.5036 147.479 87.9765 145.271 93.9215 144.379C99.8748 143.486 107.241 143.925 115.863 145.648C133.106 149.095 155.162 157.635 180.547 170.549C231.302 196.369 295.165 239.572 360.084 294.046C425.004 348.521 478.641 403.91 512.883 449.411C530.008 472.168 542.248 492.406 548.637 508.788C551.831 516.98 553.542 524.158 553.697 530.176C553.851 536.186 552.453 540.974 549.499 544.495C546.545 548.016 542.072 550.224 536.127 551.116C530.173 552.009 522.807 551.57 514.185 549.846C496.942 546.4 474.886 537.86 449.501 524.946C398.746 499.126 334.883 455.922 269.964 401.448C205.044 346.974 151.407 291.584 117.166 246.084C100.04 223.327 87.7997 203.089 81.4115 186.706C78.2171 178.515 76.5057 171.336 76.3512 165.318C76.197 159.309 77.5947 154.521 80.5492 151Z" stroke="#E74141" stroke-width="2"/>
<path opacity="0.0689655" d="M98.589 128.862C101.839 125.612 106.487 123.802 112.487 123.432C118.496 123.061 125.796 124.14 134.235 126.609C151.112 131.545 172.34 141.974 196.503 157.052C244.815 187.197 304.668 235.802 364.593 295.727C424.518 355.652 473.123 415.506 503.269 463.818C518.346 487.981 528.776 509.209 533.712 526.085C536.18 534.524 537.26 541.825 536.889 547.833C536.519 553.833 534.709 558.482 531.459 561.732C528.209 564.982 523.561 566.791 517.56 567.161C511.552 567.532 504.252 566.453 495.813 563.985C478.936 559.049 457.708 548.619 433.545 533.542C385.233 503.396 325.38 454.791 265.455 394.866C205.53 334.941 156.925 275.087 126.779 226.775C111.702 202.613 101.272 181.385 96.336 164.508C93.8678 156.069 92.7885 148.769 93.1591 142.76C93.5293 136.76 95.339 132.112 98.589 128.862Z" stroke="#E74141" stroke-width="2"/>
<path opacity="0.103448" d="M118.276 108.37C121.797 105.415 126.586 104.018 132.595 104.172C138.613 104.326 145.791 106.038 153.983 109.232C170.366 115.62 190.604 127.86 213.361 144.986C258.861 179.228 314.251 232.865 368.725 297.784C423.199 362.704 466.402 426.566 492.223 477.322C505.137 502.706 513.677 524.763 517.123 542.005C518.847 550.627 519.285 557.994 518.393 563.947C517.501 569.892 515.293 574.365 511.772 577.32C508.251 580.274 503.463 581.672 497.453 581.517C491.435 581.363 484.257 579.652 476.065 576.457C459.683 570.069 439.445 557.829 416.688 540.703C371.187 506.461 315.797 452.825 261.323 387.905C206.849 322.985 163.646 259.123 137.825 208.368C124.911 182.983 116.371 160.927 112.925 143.684C111.202 135.062 110.763 127.695 111.656 121.742C112.547 115.797 114.755 111.324 118.276 108.37Z" stroke="#E74141" stroke-width="2"/>
<path opacity="0.137931" d="M139.461 89.6623C143.226 87.026 148.118 86.051 154.091 86.7283C160.073 87.4067 167.075 89.7373 174.957 93.6334C190.72 101.425 209.814 115.382 230.992 134.427C273.335 172.504 323.839 230.764 372.448 300.184C421.057 369.604 458.53 436.989 479.828 489.802C490.481 516.216 497.066 538.932 498.996 556.41C499.961 565.149 499.757 572.526 498.348 578.379C496.942 584.223 494.352 588.487 490.587 591.123C486.822 593.759 481.93 594.734 475.957 594.057C469.976 593.379 462.974 591.048 455.092 587.152C439.328 579.36 420.234 565.403 399.056 546.359C356.713 508.282 306.209 450.022 257.6 380.601C208.992 311.181 171.519 243.796 150.22 190.984C139.568 164.57 132.983 141.853 131.052 124.376C130.087 115.636 130.292 108.26 131.7 102.407C133.106 96.5621 135.696 92.2986 139.461 89.6623Z" stroke="#E74141" stroke-width="2"/>
<path opacity="0.172414" d="M161.982 72.8636C165.962 70.5654 170.92 70.0205 176.812 71.2158C182.711 72.413 189.484 75.3449 196.996 79.9132C212.02 89.0491 229.826 104.618 249.263 125.435C288.126 167.058 333.361 229.498 375.734 302.89C418.107 376.283 449.565 446.677 466.179 501.145C474.489 528.387 479.069 551.591 479.469 569.17C479.669 577.961 478.822 585.291 476.909 590.999C474.998 596.699 472.047 600.721 468.067 603.019C464.086 605.317 459.128 605.862 453.236 604.666C447.337 603.469 440.565 600.537 433.052 595.969C418.028 586.833 400.223 571.265 380.785 550.447C341.922 508.825 296.688 446.385 254.314 372.992C211.941 299.599 180.484 229.205 163.869 174.737C155.559 147.495 150.979 124.291 150.579 106.712C150.379 97.9217 151.226 90.5909 153.139 84.8831C155.05 79.1832 158.001 75.1617 161.982 72.8636Z" stroke="#E74141" stroke-width="2"/>
<path opacity="0.206897" d="M185.667 58.082C189.832 56.1396 194.819 56.0288 200.584 57.7331C206.357 59.4399 212.848 62.9509 219.934 68.1566C234.104 78.5672 250.485 95.6282 268.034 118.06C303.122 162.912 342.742 229.057 378.557 305.863C414.373 382.67 439.575 455.538 451.38 511.247C457.284 539.109 459.824 562.624 458.69 580.171C458.123 588.945 456.64 596.174 454.237 601.694C451.837 607.205 448.547 610.954 444.381 612.897C440.215 614.839 435.228 614.95 429.464 613.246C423.691 611.539 417.2 608.028 410.114 602.822C395.943 592.412 379.563 575.351 362.014 552.919C326.926 508.067 287.306 441.922 251.49 365.116C215.675 288.309 190.472 215.441 178.668 159.732C172.764 131.87 170.224 108.355 171.358 90.8079C171.925 82.0337 173.407 74.8045 175.811 69.2852C178.211 63.7735 181.501 60.0245 185.667 58.082Z" stroke="#E74141" stroke-width="2"/>
<path opacity="0.241379" d="M210.337 45.4107C214.656 43.8387 219.633 44.163 225.228 46.3633C230.83 48.5667 236.99 52.6301 243.595 58.4335C256.805 70.0396 271.636 88.4633 287.163 112.34C318.208 160.078 351.913 229.425 380.898 309.061C409.883 388.696 428.639 463.484 435.543 520.009C438.996 548.28 439.477 571.927 436.818 589.309C435.489 598 433.381 605.072 430.506 610.361C427.635 615.643 424.03 619.091 419.711 620.663C415.392 622.235 410.415 621.91 404.82 619.71C399.218 617.507 393.058 613.443 386.453 607.64C373.243 596.034 358.412 577.61 342.885 553.734C311.84 505.995 278.135 436.649 249.15 357.013C220.165 277.377 201.409 202.59 194.505 146.064C191.052 117.793 190.571 94.1466 193.23 76.7649C194.56 68.0735 196.667 61.0011 199.542 55.7122C202.413 50.4307 206.018 46.9827 210.337 45.4107Z" stroke="#E74141" stroke-width="2"/>
<path opacity="0.275862" d="M235.803 34.9309C240.243 33.7413 245.173 34.4982 250.555 37.1777C255.944 39.861 261.726 44.4458 267.8 50.8028C279.948 63.516 293.117 83.1623 306.504 108.301C333.27 158.564 360.803 230.584 382.737 312.443C404.671 394.302 416.837 470.439 418.788 527.351C419.764 555.816 418.183 579.414 414.019 596.498C411.937 605.041 409.222 611.903 405.896 616.921C402.576 621.932 398.684 625.053 394.245 626.242C389.805 627.432 384.875 626.675 379.493 623.995C374.105 621.312 368.322 616.727 362.248 610.37C350.1 597.657 336.931 578.011 323.544 552.872C296.778 502.609 269.245 430.589 247.311 348.73C225.377 266.871 213.211 190.734 211.26 133.822C210.284 105.357 211.865 81.7587 216.029 64.6749C218.111 56.1324 220.826 49.2706 224.152 44.2524C227.472 39.2412 231.364 36.1205 235.803 34.9309Z" stroke="#E74141" stroke-width="2"/>
<path opacity="0.310345" d="M261.873 26.6997C266.399 25.9015 271.245 27.0853 276.372 30.2235C281.507 33.3663 286.868 38.4376 292.365 45.2999C303.358 59.0234 314.765 79.7427 325.91 105.953C348.194 158.357 369.344 232.503 384.061 315.962C398.777 399.421 404.261 476.329 401.244 533.195C399.736 561.636 396.103 585.007 390.467 601.663C387.648 609.991 384.345 616.59 380.595 621.299C376.85 626.002 372.702 628.772 368.175 629.57C363.649 630.368 358.803 629.184 353.676 626.046C348.541 622.903 343.18 617.832 337.683 610.97C326.69 597.246 315.283 576.527 304.138 550.317C281.854 497.913 260.703 423.767 245.987 340.308C231.271 256.849 225.787 179.941 228.804 123.075C230.312 94.634 233.945 71.2629 239.581 54.607C242.4 46.2785 245.703 39.6794 249.453 34.9701C253.198 30.2675 257.346 27.4978 261.873 26.6997Z" stroke="#E74141" stroke-width="2"/>
<path opacity="0.344828" d="M288.347 20.7628C292.926 20.3622 297.65 21.9638 302.484 25.537C307.325 29.1152 312.224 34.6345 317.102 41.9497C326.858 56.5792 336.415 78.2138 345.233 105.295C362.865 159.443 377.473 235.149 384.859 319.574C392.245 403.998 391.005 481.091 383.044 537.477C379.063 565.679 373.407 588.644 366.34 604.745C362.807 612.797 358.941 619.083 354.795 623.447C350.654 627.806 346.28 630.203 341.701 630.604C337.123 631.004 332.399 629.403 327.564 625.83C322.723 622.251 317.825 616.732 312.947 609.417C303.191 594.787 293.634 573.153 284.815 546.071C267.184 491.924 252.576 416.217 245.189 331.793C237.803 247.369 239.043 170.276 247.004 113.889C250.986 85.6879 256.641 62.7224 263.708 46.6211C267.242 38.5699 271.108 32.2839 275.254 27.9193C279.394 23.5609 283.768 21.1634 288.347 20.7628Z" stroke="#E74141" stroke-width="2"/>
<path opacity="0.37931" d="M315.024 17.1452C319.62 17.1452 324.187 19.1524 328.691 23.1334C333.202 27.1199 337.601 33.0452 341.823 40.7577C350.266 56.1818 357.902 78.567 364.326 106.314C377.172 161.792 385.126 238.484 385.126 323.23C385.126 407.977 377.172 484.669 364.326 540.147C357.902 567.894 350.266 590.279 341.823 605.703C337.601 613.416 333.202 619.341 328.691 623.327C324.187 627.308 319.62 629.316 315.024 629.316C310.428 629.316 305.861 627.308 301.357 623.327C296.846 619.341 292.447 613.416 288.225 605.703C279.782 590.279 272.146 567.894 265.722 540.147C252.877 484.669 244.923 407.977 244.923 323.23C244.923 238.484 252.877 161.792 265.722 106.314C272.146 78.567 279.782 56.1818 288.225 40.7577C292.447 33.0452 296.846 27.1199 301.357 23.1334C305.861 19.1524 310.428 17.1452 315.024 17.1452Z" stroke="#E74141" stroke-width="2"/>
<path opacity="0.413793" d="M341.701 15.8575C346.28 16.2581 350.654 18.6557 354.795 23.0141C358.941 27.3786 362.806 33.6647 366.34 41.7158C373.407 57.8171 379.063 80.7827 383.044 108.984C391.005 165.37 392.245 242.464 384.859 326.888C377.473 411.312 362.865 487.019 345.233 541.166C336.415 568.247 326.857 589.882 317.102 604.512C312.224 611.827 307.325 617.346 302.484 620.924C297.65 624.498 292.926 626.099 288.347 625.699C283.768 625.298 279.394 622.9 275.254 618.542C271.108 614.177 267.242 607.891 263.708 599.84C256.641 583.739 250.986 560.773 247.004 532.572C239.043 476.186 237.803 399.092 245.189 314.668C252.576 230.244 267.184 154.537 284.815 100.39C293.633 73.3086 303.191 51.674 312.947 37.0445C317.825 29.7293 322.723 24.21 327.564 20.6317C332.398 17.0585 337.123 15.4569 341.701 15.8575Z" stroke="#E74141" stroke-width="2"/>
<path opacity="0.448276" d="M368.175 16.891C372.702 17.6892 376.85 20.4588 380.595 25.1615C384.345 29.8708 387.648 36.4699 390.467 44.7983C396.103 61.4543 399.736 84.8253 401.244 113.266C404.261 170.132 398.777 247.04 384.061 330.499C369.345 413.958 348.194 488.104 325.91 540.508C314.765 566.718 303.358 587.437 292.365 601.161C286.868 608.023 281.507 613.095 276.372 616.237C271.245 619.376 266.399 620.559 261.873 619.761C257.347 618.963 253.198 616.193 249.453 611.491C245.703 606.782 242.4 600.182 239.582 591.854C233.945 575.198 230.312 551.827 228.804 523.386C225.787 466.52 231.272 389.612 245.988 306.153C260.704 222.694 281.854 148.548 304.138 96.1439C315.283 69.9341 326.69 49.2148 337.683 35.4912C343.18 28.629 348.541 23.5576 353.676 20.4149C358.803 17.2766 363.649 16.0929 368.175 16.891Z" stroke="#E74141" stroke-width="2"/>
<path opacity="0.482759" d="M394.245 20.2197C398.684 21.4093 402.576 24.53 405.896 29.5412C409.222 34.5594 411.937 41.4212 414.019 49.9637C418.183 67.0475 419.764 90.6462 418.788 119.11C416.837 176.023 404.671 252.16 382.737 334.019C360.803 415.878 333.27 487.898 306.504 538.161C293.117 563.3 279.948 582.946 267.8 595.659C261.726 602.016 255.944 606.601 250.555 609.284C245.173 611.964 240.243 612.721 235.803 611.531C231.364 610.341 227.472 607.221 224.152 602.21C220.826 597.191 218.111 590.33 216.029 581.787C211.865 564.703 210.284 541.105 211.26 512.64C213.211 455.728 225.377 379.591 247.311 297.732C269.245 215.873 296.778 143.853 323.544 93.5898C336.931 68.451 350.1 48.8048 362.248 36.0916C368.322 29.7346 374.105 25.1498 379.493 22.4665C384.875 19.787 389.805 19.0301 394.245 20.2197Z" stroke="#E74141" stroke-width="2"/>
<path opacity="0.517241" d="M419.711 25.7973C424.031 27.3693 427.635 30.8173 430.506 36.0988C433.382 41.3877 435.489 48.4601 436.818 57.1515C439.477 74.5332 438.996 98.18 435.543 126.451C428.639 182.976 409.883 257.764 380.898 337.399C351.913 417.035 318.208 486.382 287.163 534.12C271.636 557.997 256.805 576.421 243.595 588.027C236.99 593.83 230.83 597.893 225.228 600.097C219.634 602.297 214.656 602.621 210.337 601.049C206.018 599.477 202.413 596.029 199.542 590.748C196.667 585.459 194.56 578.387 193.23 569.695C190.571 552.313 191.052 528.667 194.505 500.396C201.409 443.87 220.165 369.083 249.15 289.447C278.135 209.812 311.84 140.465 342.885 92.7262C358.412 68.8499 373.243 50.4261 386.453 38.8201C393.058 33.0167 399.218 28.9533 404.82 26.7499C410.415 24.5496 415.392 24.2253 419.711 25.7973Z" stroke="#E74141" stroke-width="2"/>
<path opacity="0.551724" d="M444.381 33.5645C448.547 35.5069 451.837 39.256 454.237 44.7676C456.64 50.287 458.123 57.5161 458.69 66.2903C459.824 83.8376 457.284 107.352 451.38 135.215C439.575 190.923 414.373 263.792 378.558 340.598C342.742 417.405 303.122 483.55 268.034 528.401C250.485 550.833 234.105 567.894 219.934 578.305C212.848 583.51 206.357 587.022 200.584 588.728C194.819 590.433 189.832 590.322 185.667 588.379C181.501 586.437 178.211 582.688 175.811 577.176C173.407 571.657 171.925 564.428 171.358 555.654C170.224 538.106 172.764 514.591 178.668 486.729C190.472 431.02 215.675 358.152 251.49 281.346C287.306 204.539 326.926 138.394 362.014 93.5428C379.563 71.1106 395.943 54.0496 410.114 43.639C417.2 38.4333 423.691 34.9223 429.464 33.2155C435.229 31.5112 440.216 31.622 444.381 33.5645Z" stroke="#E74141" stroke-width="2"/>
<path opacity="0.586207" d="M468.067 43.4424C472.047 45.7406 474.998 49.7621 476.909 55.4619C478.822 61.1698 479.669 68.5006 479.469 77.2908C479.069 94.8702 474.489 118.074 466.179 145.316C449.565 199.784 418.107 270.178 375.734 343.571C333.361 416.963 288.126 479.404 249.263 521.026C229.826 541.844 212.02 557.412 196.996 566.548C189.484 571.116 182.711 574.048 176.812 575.245C170.92 576.441 165.962 575.896 161.982 573.598C158.001 571.299 155.05 567.278 153.139 561.578C151.226 555.87 150.379 548.539 150.579 539.749C150.979 522.17 155.559 498.966 163.869 471.724C180.484 417.256 211.941 346.862 254.314 273.469C296.688 200.077 341.922 137.636 380.785 96.0138C400.223 75.1964 418.028 59.628 433.052 50.4921C440.565 45.9238 447.337 42.9918 453.237 41.7947C459.128 40.5993 464.086 41.1443 468.067 43.4424Z" stroke="#E74141" stroke-width="2"/>
<path opacity="0.62069" d="M490.587 55.3383C494.352 57.9746 496.942 62.238 498.348 68.0827C499.756 73.9355 499.961 81.3123 498.996 90.0516C497.065 107.529 490.48 130.246 479.828 156.66C458.529 209.472 421.056 276.857 372.448 346.277C323.839 415.698 273.335 473.958 230.992 512.035C209.814 531.079 190.72 545.036 174.956 552.828C167.074 556.724 160.072 559.055 154.091 559.733C148.118 560.41 143.226 559.435 139.461 556.799C135.696 554.163 133.106 549.899 131.7 544.055C130.291 538.202 130.087 530.825 131.052 522.086C132.982 504.608 139.567 481.892 150.22 455.478C171.518 402.665 208.991 335.28 257.6 265.86C306.209 196.44 356.713 138.18 399.056 100.102C420.234 81.0584 439.328 67.1011 455.091 59.3093C462.973 55.4132 469.975 53.0827 475.957 52.4043C481.93 51.7269 486.822 52.702 490.587 55.3383Z" stroke="#E74141" stroke-width="2"/>
<path opacity="0.655172" d="M511.772 69.1412C515.293 72.0956 517.501 76.5685 518.392 82.5135C519.285 88.4668 518.846 95.8334 517.123 104.455C513.677 121.698 505.137 143.754 492.223 169.139C466.402 219.895 423.199 283.757 368.725 348.677C314.251 413.596 258.861 467.233 213.36 501.475C190.604 518.6 170.366 530.84 153.983 537.229C145.791 540.423 138.613 542.134 132.595 542.289C126.586 542.443 121.797 541.045 118.276 538.091C114.755 535.137 112.547 530.664 111.656 524.719C110.763 518.765 111.202 511.399 112.925 502.777C116.371 485.534 124.911 463.478 137.825 438.093C163.646 387.338 206.849 323.475 261.323 258.556C315.797 193.636 371.187 139.999 416.688 105.758C439.444 88.6318 459.683 76.3917 476.065 70.0035C484.257 66.8092 491.435 65.0977 497.453 64.9433C503.463 64.7891 508.251 66.1868 511.772 69.1412Z" stroke="#E74141" stroke-width="2"/>
<path opacity="0.689655" d="M531.459 84.7297C534.709 87.9797 536.519 92.628 536.889 98.6281C537.259 104.637 536.18 111.937 533.712 120.376C528.776 137.253 518.346 158.481 503.269 182.643C473.123 230.955 424.518 290.809 364.593 350.734C304.668 410.659 244.814 459.264 196.503 489.41C172.34 504.487 151.112 514.917 134.235 519.853C125.796 522.321 118.496 523.4 112.487 523.029C106.487 522.659 101.839 520.85 98.589 517.6C95.3389 514.35 93.5292 509.701 93.1591 503.701C92.7884 497.693 93.8677 490.392 96.3359 481.953C101.272 465.077 111.702 443.849 126.779 419.686C156.925 371.374 205.53 311.52 265.455 251.595C325.379 191.67 385.233 143.065 433.545 112.92C457.708 97.8423 478.936 87.4127 495.813 82.4766C504.252 80.0084 511.552 78.9291 517.56 79.2997C523.561 79.6699 528.209 81.4796 531.459 84.7297Z" stroke="#E74141" stroke-width="2"/>
<path opacity="0.724138" d="M549.499 101.965C552.454 105.486 553.851 110.274 553.697 116.284C553.543 122.302 551.831 129.48 548.637 137.672C542.249 154.054 530.009 174.292 512.883 197.049C478.641 242.55 425.004 297.94 360.085 352.414C295.165 406.888 231.303 450.091 180.547 475.912C155.162 488.826 133.106 497.365 115.863 500.812C107.241 502.535 99.875 502.974 93.9217 502.081C87.9767 501.19 83.5038 498.982 80.5493 495.461C77.5949 491.94 76.1972 487.151 76.3514 481.142C76.5058 475.124 78.2173 467.946 81.4116 459.754C87.7999 443.371 100.04 423.133 117.166 400.376C151.408 354.876 205.044 299.486 269.964 245.012C334.883 190.538 398.746 147.334 449.501 121.514C474.886 108.6 496.942 100.06 514.185 96.6138C522.807 94.8905 530.173 94.4516 536.127 95.3445C542.072 96.2362 546.545 98.4441 549.499 101.965Z" stroke="#E74141" stroke-width="2"/>
<path opacity="0.758621" d="M565.754 120.697C568.391 124.462 569.366 129.354 568.688 135.328C568.01 141.309 565.679 148.311 561.783 156.193C553.992 171.957 540.034 191.051 520.99 212.228C482.913 254.571 424.653 305.076 355.233 353.685C285.812 402.293 218.428 439.766 165.615 461.065C139.201 471.717 116.485 478.302 99.0071 480.233C90.2677 481.198 82.891 480.993 77.0382 479.585C71.1935 478.178 66.93 475.589 64.2937 471.824C61.6574 468.059 60.6824 463.167 61.3598 457.194C62.0381 451.212 64.3687 444.21 68.2648 436.328C76.0565 420.565 90.0139 401.47 109.058 380.293C147.135 337.95 205.395 287.445 274.815 238.837C344.236 190.228 411.621 152.755 464.433 131.457C490.847 120.804 513.563 114.219 531.041 112.289C539.78 111.323 547.157 111.528 553.01 112.937C558.855 114.343 563.118 116.932 565.754 120.697Z" stroke="#E74141" stroke-width="2"/>
<path opacity="0.793103" d="M580.102 140.766C582.4 144.747 582.945 149.705 581.749 155.597C580.552 161.496 577.62 168.268 573.052 175.781C563.916 190.805 548.348 208.611 527.53 228.048C485.908 266.911 423.467 312.146 350.075 354.519C276.682 396.892 206.288 428.35 151.82 444.964C124.578 453.274 101.374 457.854 83.7949 458.254C75.0046 458.454 67.6738 457.607 61.966 455.694C56.2662 453.783 52.2446 450.832 49.9465 446.852C47.6483 442.871 47.1034 437.913 48.2988 432.021C49.4959 426.122 52.4278 419.35 56.9961 411.837C66.1321 396.813 81.7004 379.008 102.518 359.57C144.14 320.707 206.581 275.473 279.973 233.099C353.366 190.726 423.76 159.269 478.228 142.654C505.47 134.344 528.674 129.764 546.253 129.364C555.043 129.164 562.374 130.011 568.082 131.924C573.782 133.835 577.804 136.786 580.102 140.766Z" stroke="#E74141" stroke-width="2"/>
<path opacity="0.827586" d="M592.432 162C594.374 166.166 594.485 171.152 592.781 176.917C591.074 182.69 587.563 189.181 582.357 196.267C571.946 210.438 554.885 226.818 532.453 244.367C487.602 279.455 421.457 319.075 344.65 354.891C267.844 390.706 194.976 415.909 139.267 427.713C111.405 433.617 87.8899 436.157 70.3426 435.023C61.5684 434.456 54.3392 432.974 48.8199 430.57C43.3083 428.17 39.5592 424.88 37.6168 420.714C35.6743 416.549 35.5636 411.562 37.2679 405.797C38.9746 400.024 42.4856 393.533 47.6913 386.447C58.1019 372.276 75.1629 355.896 97.5951 338.347C142.447 303.259 208.592 263.639 285.398 227.823C362.204 192.008 435.073 166.806 490.781 155.001C518.644 149.097 542.159 146.557 559.706 147.691C568.48 148.258 575.709 149.741 581.229 152.144C586.74 154.544 590.489 157.834 592.432 162Z" stroke="#E74141" stroke-width="2"/>
<path opacity="0.862069" d="M602.65 184.218C604.222 188.537 603.898 193.515 601.697 199.109C599.494 204.712 595.43 210.872 589.627 217.477C578.021 230.686 559.597 245.518 535.721 261.045C487.982 292.09 418.636 325.795 339 354.78C259.364 383.765 184.577 402.52 128.051 409.424C99.7804 412.877 76.1337 413.358 58.7519 410.7C50.0605 409.37 42.9881 407.263 37.6993 404.388C32.4178 401.517 28.9698 397.912 27.3978 393.593C25.8257 389.274 26.1501 384.296 28.3503 378.702C30.5537 373.1 34.6171 366.94 40.4205 360.334C52.0266 347.125 70.4503 332.294 94.3266 316.767C142.066 285.721 211.412 252.017 291.048 223.032C370.683 194.047 445.471 175.291 501.996 168.387C530.267 164.934 553.914 164.453 571.296 167.112C579.987 168.441 587.059 170.548 592.348 173.423C597.63 176.295 601.078 179.899 602.65 184.218Z" stroke="#E74141" stroke-width="2"/>
<path opacity="0.896552" d="M610.68 207.233C611.869 211.673 611.112 216.603 608.433 221.985C605.75 227.373 601.165 233.156 594.808 239.23C582.095 251.378 562.448 264.547 537.31 277.934C487.047 304.7 415.027 332.233 333.168 354.167C251.309 376.101 175.171 388.267 118.259 390.218C89.7948 391.194 66.1962 389.613 49.1123 385.449C40.5698 383.367 33.708 380.652 28.6899 377.326C23.6787 374.006 20.558 370.114 19.3684 365.675C18.1788 361.235 18.9357 356.305 21.6152 350.923C24.2984 345.534 28.8832 339.752 35.2402 333.678C47.9535 321.53 67.5997 308.361 92.7384 294.974C143.001 268.208 215.022 240.675 296.88 218.741C378.739 196.807 454.877 184.641 511.789 182.69C540.253 181.714 563.852 183.295 580.936 187.459C589.478 189.541 596.34 192.256 601.358 195.582C606.369 198.902 609.49 202.794 610.68 207.233Z" stroke="#E74141" stroke-width="2"/>
<path opacity="0.931035" d="M616.459 230.851C617.257 235.377 616.074 240.223 612.935 245.35C609.793 250.484 604.721 255.845 597.859 261.343C584.135 272.336 563.416 283.743 537.206 294.888C484.802 317.171 410.656 338.322 327.197 353.038C243.738 367.754 166.83 373.238 109.964 370.222C81.5232 368.713 58.1522 365.081 41.4962 359.444C33.1677 356.626 26.5687 353.323 21.8594 349.573C17.1567 345.828 14.387 341.679 13.5889 337.153C12.7908 332.626 13.9745 327.781 17.1128 322.653C20.2555 317.519 25.3269 312.158 32.1891 306.661C45.9127 295.668 66.6319 284.261 92.8418 273.116C145.246 250.832 219.392 229.681 302.851 214.965C386.31 200.249 463.218 194.765 520.084 197.781C548.525 199.29 571.896 202.922 588.552 208.559C596.88 211.378 603.479 214.681 608.189 218.431C612.891 222.176 615.661 226.324 616.459 230.851Z" stroke="#E74141" stroke-width="2"/>
<path opacity="0.965517" d="M619.944 254.874C620.345 259.453 618.743 264.177 615.17 269.011C611.592 273.852 606.073 278.751 598.757 283.629C584.128 293.384 562.493 302.942 535.412 311.76C481.265 329.391 405.558 344 321.134 351.386C236.71 358.772 159.616 357.532 103.23 349.571C75.0285 345.589 52.063 339.934 35.9617 332.867C27.9105 329.333 21.6245 325.467 17.26 321.321C12.9015 317.181 10.504 312.807 10.1034 308.228C9.70279 303.649 11.3044 298.925 14.8776 294.091C18.4558 289.25 23.9751 284.351 31.2903 279.473C45.9199 269.718 67.5544 260.16 94.6359 251.342C148.783 233.71 224.49 219.102 308.914 211.716C393.338 204.33 470.432 205.57 526.818 213.531C555.019 217.513 577.985 223.168 594.086 230.235C602.137 233.769 608.423 237.634 612.788 241.781C617.146 245.921 619.544 250.295 619.944 254.874Z" stroke="#E74141" stroke-width="2"/>
<path d="M621.109 279.099C621.109 283.695 619.102 288.261 615.121 292.766C611.135 297.277 605.209 301.675 597.497 305.897C582.073 314.341 559.688 321.976 531.941 328.401C476.463 341.246 399.771 349.2 315.024 349.2C230.278 349.2 153.586 341.246 98.1077 328.401C70.3608 321.976 47.9756 314.341 32.5514 305.897C24.8389 301.675 18.9137 297.277 14.9271 292.766C10.9462 288.261 8.93896 283.695 8.93896 279.099C8.93896 274.502 10.9462 269.936 14.9271 265.431C18.9137 260.921 24.8389 256.522 32.5514 252.3C47.9756 243.856 70.3608 236.221 98.1077 229.796C153.586 216.951 230.278 208.997 315.024 208.997C399.771 208.997 476.463 216.951 531.941 229.796C559.688 236.221 582.073 243.856 597.497 252.3C605.209 256.522 611.135 260.921 615.121 265.431C619.102 269.936 621.109 274.502 621.109 279.099Z" stroke="#E74141" stroke-width="2"/>
</svg>
