<svg width="598" height="598" viewBox="0 0 598 598" fill="none" xmlns="http://www.w3.org/2000/svg">
<path d="M386.153 299.001C386.153 347.134 347.133 386.154 299 386.154C250.867 386.154 211.847 347.134 211.847 299.001C211.847 250.868 250.867 211.848 299 211.848C347.133 211.848 386.153 250.868 386.153 299.001ZM236.607 299.001C236.607 333.46 264.541 361.394 299 361.394C333.459 361.394 361.393 333.46 361.393 299.001C361.393 264.542 333.459 236.608 299 236.608C264.541 236.608 236.607 264.542 236.607 299.001Z" fill="#2F282E"/>
<path d="M299 373.731C299 380.592 304.59 386.245 311.381 385.27C324.223 383.427 336.546 378.731 347.42 371.466C361.752 361.889 372.922 348.278 379.519 332.353C386.115 316.428 387.841 298.904 384.478 281.998C381.927 269.172 376.533 257.138 368.756 246.754C364.643 241.263 356.694 241.307 351.843 246.158C346.991 251.01 347.118 258.825 350.912 264.541C355.38 271.273 358.519 278.843 360.111 286.845C362.515 298.932 361.281 311.46 356.565 322.845C351.849 334.231 343.863 343.962 333.617 350.808C326.833 355.341 319.26 358.475 311.34 360.075C304.616 361.434 299 366.871 299 373.731Z" fill="#4BAA01"/>
<path d="M441.93 299.001C441.93 377.939 377.938 441.931 299 441.931C220.062 441.931 156.069 377.939 156.069 299.001C156.069 220.063 220.062 156.07 299 156.07C377.938 156.07 441.93 220.063 441.93 299.001ZM181.673 299.001C181.673 363.799 234.202 416.328 299 416.328C363.798 416.328 416.327 363.799 416.327 299.001C416.327 234.203 363.798 181.674 299 181.674C234.202 181.674 181.673 234.203 181.673 299.001Z" fill="#2F282E"/>
<path d="M299 429.13C299 436.2 304.743 441.991 311.785 441.359C330.342 439.692 348.437 434.409 365.034 425.763C385.425 415.141 402.952 399.756 416.129 380.915C429.306 362.074 437.742 340.333 440.724 317.535C443.705 294.738 441.143 271.558 433.255 249.962C425.366 228.366 412.385 208.992 395.411 193.483C378.438 177.975 357.974 166.79 335.756 160.877C313.537 154.965 290.221 154.499 267.784 159.521C249.522 163.608 232.282 171.232 217.019 181.918C211.228 185.974 210.57 194.103 215.127 199.509C219.684 204.914 227.726 205.536 233.596 201.595C245.651 193.501 259.135 187.694 273.376 184.506C291.793 180.385 310.933 180.766 329.172 185.62C347.41 190.473 364.208 199.655 378.141 212.385C392.074 225.115 402.73 241.019 409.205 258.746C415.68 276.474 417.784 295.501 415.336 314.215C412.889 332.929 405.963 350.776 395.147 366.242C384.331 381.708 369.943 394.336 353.205 403.056C340.263 409.798 326.21 414.049 311.777 415.63C304.749 416.4 299 422.059 299 429.13Z" fill="#E74141"/>
<path d="M497.708 299C497.708 408.744 408.744 497.709 299 497.709C189.256 497.709 100.292 408.744 100.292 299C100.292 189.257 189.256 100.292 299 100.292C408.744 100.292 497.708 189.257 497.708 299ZM125.945 299C125.945 394.576 203.424 472.055 299 472.055C394.576 472.055 472.055 394.576 472.055 299C472.055 203.425 394.576 125.945 299 125.945C203.424 125.945 125.945 203.425 125.945 299Z" fill="#2F282E"/>
<path d="M299 484.882C299 491.966 304.749 497.752 311.818 497.295C343.493 495.248 374.284 485.636 401.575 469.187C432.535 450.526 457.819 423.773 474.703 391.809C491.587 359.845 499.432 323.88 497.392 287.789C495.352 251.697 483.506 216.845 463.128 186.987C442.75 157.128 414.613 133.394 381.747 118.341C348.881 103.287 312.532 97.4844 276.612 101.557C240.693 105.63 206.565 119.424 177.904 141.454C152.64 160.873 132.467 186.043 119.017 214.793C116.015 221.209 119.307 228.671 125.904 231.253C132.501 233.835 139.898 230.555 142.961 224.167C154.67 199.752 171.975 178.368 193.538 161.793C218.499 142.607 248.221 130.594 279.503 127.047C310.785 123.5 342.442 128.554 371.065 141.664C399.688 154.774 424.192 175.444 441.939 201.448C459.686 227.451 470.003 257.804 471.78 289.236C473.556 320.668 466.724 351.99 452.02 379.828C437.316 407.665 415.296 430.964 388.332 447.216C365.039 461.255 338.819 469.575 311.815 471.58C304.751 472.105 299 477.798 299 484.882Z" fill="#E6B91C"/>
<path d="M550 299C550 437.624 437.623 550 299 550C160.376 550 47.9999 437.624 47.9999 299C47.9999 160.377 160.376 48.0005 299 48.0005C437.623 48.0005 550 160.377 550 299ZM71.6487 299C71.6487 424.563 173.437 526.352 299 526.352C424.562 526.352 526.351 424.563 526.351 299C526.351 173.438 424.562 71.6493 299 71.6493C173.437 71.6493 71.6487 173.438 71.6487 299Z" fill="#2F282E"/>
<path d="M298.999 538.21C298.999 544.722 304.281 550.03 310.786 549.724C345.552 548.09 379.645 539.24 410.878 523.688C445.633 506.382 475.9 481.249 499.299 450.266C522.697 419.283 538.589 383.294 545.724 345.129C552.86 306.964 551.044 267.665 540.42 230.32C529.796 192.976 510.654 158.606 484.498 129.912C458.343 101.218 425.887 78.983 389.684 64.9554C353.48 50.9279 314.516 45.4903 275.856 49.0702C241.114 52.2873 207.469 62.7076 177.048 79.6179C171.356 82.7819 169.659 90.0752 173.087 95.612C176.514 101.149 183.768 102.829 189.475 99.6934C216.782 84.6874 246.921 75.4322 278.03 72.5515C313.059 69.3079 348.362 74.2347 381.164 86.9443C413.966 99.6539 443.372 119.8 467.07 145.798C490.769 171.796 508.113 202.937 517.738 236.773C527.364 270.609 529.009 306.216 522.544 340.795C516.079 375.374 501.681 407.982 480.48 436.054C459.28 464.127 431.857 486.898 400.366 502.578C372.399 516.504 341.902 524.499 310.785 526.114C304.282 526.451 298.999 531.698 298.999 538.21Z" fill="#0163AA"/>
<path d="M598 299C598 464.133 464.133 598 299 598C133.867 598 0 464.133 0 299C0 133.867 133.867 0 299 0C464.133 0 598 133.867 598 299ZM22.3362 299C22.3362 451.797 146.203 575.664 299 575.664C451.797 575.664 575.664 451.797 575.664 299C575.664 146.203 451.797 22.3362 299 22.3362C146.203 22.3362 22.3362 146.203 22.3362 299Z" fill="#2F282E"/>
<path d="M299 587.518C299 593.307 303.695 598.019 309.48 597.816C356.259 596.176 402.053 583.572 443.147 560.959C484.242 538.346 519.396 506.407 545.816 467.768C549.084 462.99 547.616 456.503 542.726 453.405C537.835 450.307 531.376 451.772 528.096 456.542C503.576 492.2 471.039 521.684 433.041 542.593C395.043 563.502 352.724 575.209 309.48 576.839C303.695 577.058 299 581.73 299 587.518Z" fill="#A701AA"/>
</svg>
