<svg width="800" height="799" viewBox="0 0 800 799" fill="none" xmlns="http://www.w3.org/2000/svg">
<path d="M487.153 398C487.153 446.134 448.133 485.153 400 485.153C351.867 485.153 312.847 446.134 312.847 398C312.847 349.867 351.867 310.848 400 310.848C448.133 310.848 487.153 349.867 487.153 398ZM337.607 398C337.607 432.459 365.541 460.394 400 460.394C434.459 460.394 462.393 432.459 462.393 398C462.393 363.542 434.459 335.607 400 335.607C365.541 335.607 337.607 363.542 337.607 398Z" fill="#2F282E"/>
<path d="M542.93 398.001C542.93 476.939 478.938 540.931 400 540.931C321.062 540.931 257.069 476.939 257.069 398.001C257.069 319.063 321.062 255.07 400 255.07C478.938 255.07 542.93 319.063 542.93 398.001ZM282.673 398.001C282.673 462.799 335.202 515.328 400 515.328C464.798 515.328 517.327 462.799 517.327 398.001C517.327 333.203 464.798 280.674 400 280.674C335.202 280.674 282.673 333.203 282.673 398.001Z" fill="#2F282E"/>
<path d="M598.708 398C598.708 507.744 509.744 596.709 400 596.709C290.257 596.709 201.292 507.744 201.292 398C201.292 288.257 290.257 199.292 400 199.292C509.744 199.292 598.708 288.257 598.708 398ZM226.945 398C226.945 493.576 304.424 571.055 400 571.055C495.576 571.055 573.055 493.576 573.055 398C573.055 302.425 495.576 224.945 400 224.945C304.424 224.945 226.945 302.425 226.945 398Z" fill="#2F282E"/>
<path d="M651 398C651 536.624 538.623 649 400 649C261.377 649 149 536.624 149 398C149 259.377 261.377 147 400 147C538.623 147 651 259.377 651 398ZM172.649 398C172.649 523.563 274.437 625.352 400 625.352C525.563 625.352 627.351 523.563 627.351 398C627.351 272.438 525.563 170.649 400 170.649C274.437 170.649 172.649 272.438 172.649 398Z" fill="#2F282E"/>
<path d="M699 398C699 563.133 565.133 697 400 697C234.867 697 101 563.133 101 398C101 232.867 234.867 99 400 99C565.133 99 699 232.867 699 398ZM123.336 398C123.336 550.797 247.203 674.664 400 674.664C552.797 674.664 676.664 550.797 676.664 398C676.664 245.203 552.797 121.336 400 121.336C247.203 121.336 123.336 245.203 123.336 398Z" fill="#2F282E"/>
<path d="M747 398C747 589.643 591.643 745 400 745C208.357 745 53 589.643 53 398C53 206.357 208.357 51 400 51C591.643 51 747 206.357 747 398ZM78.9219 398C78.9219 575.327 222.673 719.078 400 719.078C577.327 719.078 721.078 575.327 721.078 398C721.078 220.673 577.327 76.9219 400 76.9219C222.673 76.9219 78.9219 220.673 78.9219 398Z" fill="#2F282E"/>
<path d="M400 686.518C400 692.307 404.694 697.019 410.48 696.816C457.259 695.176 503.052 682.572 544.147 659.959C585.242 637.346 620.396 605.407 646.816 566.768C650.084 561.99 648.615 555.503 643.725 552.405V552.405C638.835 549.307 632.376 550.772 629.096 555.542C604.576 591.2 572.039 620.684 534.041 641.593C496.043 662.502 453.724 674.209 410.479 675.839C404.695 676.058 400 680.73 400 686.518V686.518Z" fill="#A701AA"/>
<path d="M400 732.836C400 739.554 405.448 745.022 412.162 744.787C425.85 744.307 439.499 743.017 453.035 740.923C459.674 739.896 464.001 733.504 462.742 726.905V726.905C461.483 720.306 455.116 716.001 448.474 717.01C436.444 718.838 424.32 719.984 412.161 720.442C405.448 720.696 400 726.118 400 732.836V732.836Z" fill="#07CBF5"/>
<path d="M487.151 399.003C487.151 447.136 448.131 486.156 399.998 486.156C351.865 486.156 312.845 447.136 312.845 399.003C312.845 350.87 351.865 311.85 399.998 311.85C448.131 311.85 487.151 350.87 487.151 399.003ZM337.605 399.003C337.605 433.462 365.539 461.396 399.998 461.396C434.457 461.396 462.391 433.462 462.391 399.003C462.391 364.544 434.457 336.61 399.998 336.61C365.539 336.61 337.605 364.544 337.605 399.003Z" fill="#2F282E"/>
<path d="M399.998 473.733C399.998 480.594 405.588 486.247 412.379 485.272C429.088 482.874 444.838 475.658 457.633 464.377C470.429 453.097 479.562 438.375 484.035 422.098C485.853 415.483 480.946 409.229 474.139 408.369V408.369C467.333 407.509 461.235 412.399 459.044 418.901C455.577 429.189 449.455 438.466 441.203 445.741C432.952 453.016 422.981 457.926 412.339 460.077C405.614 461.436 399.998 466.873 399.998 473.733V473.733Z" fill="#4BAA01"/>
<path d="M542.928 399.003C542.928 477.941 478.936 541.933 399.998 541.933C321.06 541.933 257.067 477.941 257.067 399.003C257.067 320.064 321.06 256.072 399.998 256.072C478.936 256.072 542.928 320.064 542.928 399.003ZM282.671 399.003C282.671 463.801 335.2 516.33 399.998 516.33C464.796 516.33 517.325 463.801 517.325 399.003C517.325 334.205 464.796 281.676 399.998 281.676C335.2 281.676 282.671 334.205 282.671 399.003Z" fill="#2F282E"/>
<path d="M400 529.132C400 536.202 405.743 541.993 412.785 541.361C439.936 538.922 465.923 528.757 487.603 511.94C509.283 495.123 525.592 472.481 534.706 446.789C537.069 440.126 532.888 433.123 526.04 431.365V431.365C519.192 429.606 512.281 433.767 509.787 440.383C502.174 460.584 489.099 478.377 471.91 491.709C454.722 505.042 434.236 513.281 412.777 515.632C405.749 516.402 400 522.061 400 529.132V529.132Z" fill="#E74141"/>
<path d="M598.706 399.002C598.706 508.746 509.742 597.711 399.998 597.711C290.255 597.711 201.29 508.746 201.29 399.002C201.29 289.259 290.255 200.294 399.998 200.294C509.742 200.294 598.706 289.259 598.706 399.002ZM226.943 399.002C226.943 494.578 304.422 572.057 399.998 572.057C495.574 572.057 573.053 494.578 573.053 399.002C573.053 303.427 495.574 225.947 399.998 225.947C304.422 225.947 226.943 303.427 226.943 399.002Z" fill="#2F282E"/>
<path d="M400 584.884C400 591.968 405.749 597.754 412.818 597.297C437.58 595.696 461.826 589.471 484.297 578.944C490.712 575.939 492.962 568.099 489.549 561.892V561.892C486.137 555.684 478.354 553.465 471.911 556.409C453.267 564.927 433.256 570.064 412.815 571.582C405.751 572.107 400 577.8 400 584.884V584.884Z" fill="#E6B91C"/>
<path d="M650.998 399.002C650.998 537.626 538.622 650.002 399.998 650.002C261.375 650.002 148.998 537.626 148.998 399.002C148.998 260.379 261.375 148.002 399.998 148.002C538.622 148.002 650.998 260.379 650.998 399.002ZM172.647 399.002C172.647 524.565 274.435 626.354 399.998 626.354C525.561 626.354 627.349 524.565 627.349 399.002C627.349 273.44 525.561 171.651 399.998 171.651C274.435 171.651 172.647 273.44 172.647 399.002Z" fill="#2F282E"/>
<path d="M399.999 638.212C399.999 644.724 405.281 650.032 411.786 649.726C447.332 648.055 482.164 638.842 513.951 622.646C545.737 606.45 573.665 583.685 595.91 555.91C599.981 550.827 598.792 543.434 593.523 539.607V539.607C588.255 535.779 580.905 536.969 576.81 542.031C556.769 566.806 531.715 587.128 503.245 601.634C474.775 616.14 443.608 624.464 411.785 626.116C405.282 626.453 399.999 631.7 399.999 638.212V638.212Z" fill="#0163AA"/>
<path d="M698.999 399.002C698.999 564.136 565.132 698.002 399.999 698.002C234.865 698.002 100.999 564.136 100.999 399.002C100.999 233.869 234.865 100.002 399.999 100.002C565.132 100.002 698.999 233.869 698.999 399.002ZM123.335 399.002C123.335 551.8 247.201 675.666 399.999 675.666C552.796 675.666 676.662 551.8 676.662 399.002C676.662 246.205 552.796 122.339 399.999 122.339C247.201 122.339 123.335 246.205 123.335 399.002Z" fill="#2F282E"/>
<path d="M800 399.5C800 620.138 621.138 799 400.5 799C179.862 799 1 620.138 1 399.5C1 178.862 179.862 0 400.5 0C621.138 0 800 178.862 800 399.5ZM30.8438 399.5C30.8438 603.655 196.345 769.156 400.5 769.156C604.655 769.156 770.156 603.655 770.156 399.5C770.156 195.345 604.655 29.8438 400.5 29.8438C196.345 29.8438 30.8438 195.345 30.8438 399.5Z" fill="#2F282E"/>
<path d="M400 686.521C400 692.31 404.694 697.022 410.479 696.819C446.169 695.567 481.376 687.93 514.422 674.242C550.699 659.216 583.66 637.192 611.425 609.427C639.19 581.663 661.214 548.701 676.24 512.425C689.928 479.379 697.565 444.172 698.816 408.482C699.019 402.697 694.307 398.002 688.518 398.002V398.002C682.73 398.002 678.057 402.697 677.839 408.482C676.597 441.418 669.507 473.9 656.873 504.403C642.9 538.136 622.42 568.786 596.602 594.604C570.784 620.422 540.133 640.902 506.4 654.875C475.898 667.51 443.415 674.6 410.479 675.842C404.694 676.06 400 680.732 400 686.521V686.521Z" fill="#A701AA"/>
<path d="M400 784.995C400 792.73 406.272 799.026 414.002 798.755C446.569 797.616 478.875 792.506 510.201 783.539C517.642 781.41 521.665 773.478 519.271 766.118V766.118C516.879 758.766 508.988 754.769 501.55 756.878C473.024 764.963 443.633 769.613 414.001 770.728C406.272 771.018 400 777.261 400 784.995V784.995Z" fill="#35A885"/>
</svg>
