<svg width="1263" height="141" viewBox="0 0 1263 141" fill="none" xmlns="http://www.w3.org/2000/svg">
<path d="M0.35472 19.272V16.272H-2.64528V19.272H0.35472ZM0.35472 139H-2.64528V142H0.35472V139ZM31.1419 113.173H28.1419V116.173H31.1419V113.173ZM31.1419 45.099V42.099H28.1419V45.099H31.1419ZM87.243 16.272H0.35472V22.272H87.243V16.272ZM-2.64528 19.272V139H3.35472V19.272H-2.64528ZM0.35472 142H87.243V136H0.35472V142ZM87.243 142C103.322 142 118.64 137.023 129.967 126.535C141.338 116.007 148.397 100.197 148.397 79.136H142.397C142.397 98.7827 135.858 112.904 125.891 122.132C115.882 131.399 102.122 136 87.243 136V142ZM148.397 79.136C148.397 58.0752 141.338 42.2646 129.967 31.7373C118.64 21.2495 103.322 16.272 87.243 16.272V22.272C102.122 22.272 115.882 26.8728 125.891 36.14C135.858 45.3679 142.397 59.4893 142.397 79.136H148.397ZM75.6123 110.173H31.1419V116.173H75.6123V110.173ZM34.1419 113.173V45.099H28.1419V113.173H34.1419ZM31.1419 48.099H75.6123V42.099H31.1419V48.099ZM75.6123 48.099C87.2059 48.099 96.0885 49.3787 102.093 53.657C107.838 57.75 111.609 65.1167 111.609 79.136H117.609C117.609 64.0785 113.513 54.4268 105.575 48.7705C97.8962 43.2995 87.2802 42.099 75.6123 42.099V48.099ZM111.609 79.136C111.609 93.1553 107.838 100.522 102.093 104.615C96.0885 108.893 87.2059 110.173 75.6123 110.173V116.173C87.2802 116.173 97.8962 114.973 105.575 109.502C113.513 103.845 117.609 94.1935 117.609 79.136H111.609ZM185.586 95.5558V92.5558H181.919L182.645 96.1502L185.586 95.5558ZM294.367 95.5558V98.5558H297.367V95.5558H294.367ZM292.657 102.911L295.56 103.665L296.536 99.9106H292.657V102.911ZM263.58 102.911V99.9106H262.039L261.141 101.163L263.58 102.911ZM263.067 76.9125V79.9125H267.293L265.899 75.923L263.067 76.9125ZM186.612 76.9125L183.759 75.9844L182.481 79.9125H186.612V76.9125ZM223.728 113.936C214.184 113.936 205.996 112.627 199.902 109.59C193.954 106.626 189.95 102.006 188.526 94.9615L182.645 96.1502C184.471 105.183 189.789 111.254 197.225 114.96C204.515 118.593 213.773 119.936 223.728 119.936V113.936ZM185.586 98.5558H294.367V92.5558H185.586V98.5558ZM297.367 95.5558C297.367 71.8983 289.417 56.1392 276.031 46.4332C262.833 36.8635 244.841 33.547 225.438 33.547V39.547C244.348 39.547 260.821 42.8157 272.509 51.2906C284.009 59.6294 291.367 73.3746 291.367 95.5558H297.367ZM225.438 33.547C204.711 33.547 186.57 37.3492 173.528 46.2328C160.302 55.2408 152.654 69.2503 152.654 88.7142H158.654C158.654 71.0625 165.458 58.9884 176.905 51.1918C188.535 43.2706 205.286 39.547 225.438 39.547V33.547ZM152.654 88.7142C152.654 108.126 160.541 122.073 173.627 131.041C186.548 139.896 204.251 143.71 223.728 143.71V137.71C204.892 137.71 188.557 133.999 177.019 126.092C165.647 118.298 158.654 106.248 158.654 88.7142H152.654ZM223.728 143.71C242.651 143.71 258.756 140.636 271.082 134.08C283.503 127.474 291.998 117.368 295.56 103.665L289.753 102.156C286.645 114.109 279.319 122.903 268.264 128.783C257.115 134.713 242.091 137.71 223.728 137.71V143.71ZM292.657 99.9106H263.58V105.911H292.657V99.9106ZM261.141 101.163C254.677 110.184 243.69 113.936 223.728 113.936V119.936C244.131 119.936 257.774 116.162 266.018 104.658L261.141 101.163ZM225.267 61.7822C234.353 61.7822 242.091 62.7598 248.065 65.2868C253.911 67.759 258.069 71.7043 260.235 77.902L265.899 75.923C263.104 67.9243 257.599 62.8045 250.403 59.7607C243.335 56.7716 234.654 55.7822 225.267 55.7822V61.7822ZM263.067 73.9125H186.612V79.9125H263.067V73.9125ZM189.465 77.8405C191.474 71.6628 195.454 67.75 201.326 65.2908C207.355 62.7654 215.385 61.7822 225.267 61.7822V55.7822C215.137 55.7822 206.148 56.766 199.008 59.7566C191.709 62.8136 186.368 67.9659 183.759 75.9844L189.465 77.8405ZM396.65 22.8638L396.42 25.855L399.65 26.1035V22.8638H396.65ZM396.65 2.168H399.65V-0.50692L396.993 -0.812373L396.65 2.168ZM324.643 38.2574V41.2574H327.643V38.2574H324.643ZM298.131 38.2574V35.2574H295.131V38.2574H298.131ZM298.131 62.7162H295.131V65.7162H298.131V62.7162ZM324.643 62.7162H327.643V59.7162H324.643V62.7162ZM324.643 139H321.643V142H324.643V139ZM354.061 139V142H357.061V139H354.061ZM354.061 62.7162V59.7162H351.061V62.7162H354.061ZM396.65 62.7162V65.7162H399.65V62.7162H396.65ZM396.65 38.2574H399.65V35.2574H396.65V38.2574ZM354.061 38.2574L351.064 38.1359L350.937 41.2574H354.061V38.2574ZM375.612 25.0086C383.044 25.0086 389.807 25.3463 396.42 25.855L396.88 19.8727C390.152 19.3551 383.232 19.0086 375.612 19.0086V25.0086ZM399.65 22.8638V2.168H393.65V22.8638H399.65ZM396.993 -0.812373C381.965 -2.53972 376.542 -2.54241 366.376 -2.54241V3.45759C376.393 3.45759 381.575 3.45491 396.308 5.14838L396.993 -0.812373ZM366.376 -2.54241C351.451 -2.54241 340.226 -0.0921659 332.692 5.4869C324.953 11.2176 321.643 19.8285 321.643 30.7317H327.643C327.643 21.1101 330.489 14.5839 336.263 10.3088C342.241 5.882 351.882 3.45759 366.376 3.45759V-2.54241ZM321.643 30.7317V38.2574H327.643V30.7317H321.643ZM324.643 35.2574H298.131V41.2574H324.643V35.2574ZM295.131 38.2574V62.7162H301.131V38.2574H295.131ZM298.131 65.7162H324.643V59.7162H298.131V65.7162ZM321.643 62.7162V139H327.643V62.7162H321.643ZM324.643 142H354.061V136H324.643V142ZM357.061 139V62.7162H351.061V139H357.061ZM354.061 65.7162H396.65V59.7162H354.061V65.7162ZM399.65 62.7162V38.2574H393.65V62.7162H399.65ZM396.65 35.2574H354.061V41.2574H396.65V35.2574ZM357.059 38.379C357.309 32.2088 358.473 29.3775 360.571 27.7657C362.911 25.9683 367.201 25.0086 375.612 25.0086V19.0086C367.262 19.0086 361.033 19.8449 356.916 23.0076C352.557 26.356 351.327 31.6491 351.064 38.1359L357.059 38.379ZM407.744 2.168V-0.831997H404.744V2.168H407.744ZM407.744 27.653H404.744V30.653H407.744V27.653ZM436.992 27.653V30.653H439.992V27.653H436.992ZM436.992 2.168H439.992V-0.831997H436.992V2.168ZM407.744 38.2574V35.2574H404.744V38.2574H407.744ZM407.744 139H404.744V142H407.744V139ZM436.992 139V142H439.992V139H436.992ZM436.992 38.2574H439.992V35.2574H436.992V38.2574ZM404.744 2.168V27.653H410.744V2.168H404.744ZM407.744 30.653H436.992V24.653H407.744V30.653ZM439.992 27.653V2.168H433.992V27.653H439.992ZM436.992 -0.831997H407.744V5.168H436.992V-0.831997ZM404.744 38.2574V139H410.744V38.2574H404.744ZM407.744 142H436.992V136H407.744V142ZM439.992 139V38.2574H433.992V139H439.992ZM436.992 35.2574H407.744V41.2574H436.992V35.2574ZM451.673 19.272V16.272H448.673V19.272H451.673ZM451.673 139H448.673V142H451.673V139ZM482.46 139V142H485.46V139H482.46ZM482.46 107.016V104.016H479.46V107.016H482.46ZM482.46 81.1885H479.46V84.1885H482.46V81.1885ZM482.46 45.099V42.099H479.46V45.099H482.46ZM545.745 16.272H451.673V22.272H545.745V16.272ZM448.673 19.272V139H454.673V19.272H448.673ZM451.673 142H482.46V136H451.673V142ZM485.46 139V107.016H479.46V139H485.46ZM482.46 110.016H545.745V104.016H482.46V110.016ZM545.745 110.016C559.972 110.016 572.213 105.533 580.922 97.3094C589.65 89.0684 594.584 77.2993 594.584 63.2293H588.584C588.584 75.8415 584.196 85.9655 576.803 92.947C569.392 99.9457 558.713 104.016 545.745 104.016V110.016ZM594.584 63.2293C594.584 49.1604 589.651 37.352 580.929 29.0694C572.222 20.802 559.98 16.272 545.745 16.272V22.272C558.705 22.272 569.383 26.3795 576.797 33.4202C584.195 40.4457 588.584 50.6159 588.584 63.2293H594.584ZM537.193 78.1885H482.46V84.1885H537.193V78.1885ZM485.46 81.1885V45.099H479.46V81.1885H485.46ZM482.46 48.099H537.193V42.099H482.46V48.099ZM537.193 48.099C541.961 48.099 547.142 48.1512 551.166 50.0725C553.079 50.986 554.673 52.3043 555.818 54.2624C556.977 56.2444 557.797 59.0882 557.797 63.2293H563.797C563.797 58.3052 562.82 54.3502 560.997 51.2331C559.16 48.092 556.584 46.0109 553.751 44.6581C548.282 42.0469 541.662 42.099 537.193 42.099V48.099ZM557.797 63.2293C557.797 67.3231 556.979 70.1308 555.824 72.0866C554.683 74.0198 553.092 75.3254 551.176 76.2316C547.147 78.1371 541.96 78.1885 537.193 78.1885V84.1885C541.662 84.1885 548.277 84.2399 553.741 81.6555C556.572 80.3168 559.15 78.2551 560.991 75.1373C562.818 72.0421 563.797 68.1151 563.797 63.2293H557.797ZM633.755 55.3614H630.755V62.0862L635.759 57.5938L633.755 55.3614ZM633.755 38.2574H636.755V35.2574H633.755V38.2574ZM604.507 38.2574V35.2574H601.507V38.2574H604.507ZM604.507 139H601.507V142H604.507V139ZM633.755 139V142H636.755V139H633.755ZM633.755 78.6229L631.911 76.2561L630.755 77.1569V78.6229H633.755ZM712.604 64.4266L711.876 67.337L715.604 68.2689V64.4266H712.604ZM712.604 39.9678H715.604V37.6255L713.332 37.0574L712.604 39.9678ZM685.409 33.547C665.995 33.547 647.449 39.0362 631.75 53.129L635.759 57.5938C650.163 44.6624 667.193 39.547 685.409 39.547V33.547ZM636.755 55.3614V38.2574H630.755V55.3614H636.755ZM633.755 35.2574H604.507V41.2574H633.755V35.2574ZM601.507 38.2574V139H607.507V38.2574H601.507ZM604.507 142H633.755V136H604.507V142ZM636.755 139V78.6229H630.755V139H636.755ZM635.598 80.9897C652.729 67.6473 670.838 64.0058 686.777 64.0058V58.0058C669.876 58.0058 650.357 61.89 631.911 76.2561L635.598 80.9897ZM686.777 64.0058C695.047 64.0058 702.498 64.9924 711.876 67.337L713.332 61.5161C703.554 59.0716 695.611 58.0058 686.777 58.0058V64.0058ZM715.604 64.4266V39.9678H709.604V64.4266H715.604ZM713.332 37.0574C706.34 35.3095 697.703 33.547 685.409 33.547V39.547C697.06 39.547 705.185 41.2054 711.876 42.8783L713.332 37.0574ZM785.16 143.71C806.22 143.71 824.368 139.911 837.332 131.043C850.483 122.046 857.944 108.072 857.944 88.7142H851.944C851.944 106.301 845.294 118.326 833.944 126.091C822.406 133.984 805.662 137.71 785.16 137.71V143.71ZM857.944 88.7142C857.944 69.2763 850.487 55.259 837.335 46.2382C824.37 37.3459 806.22 33.547 785.16 33.547V39.547C805.663 39.547 822.405 43.274 833.941 51.1863C845.29 58.9702 851.944 71.0365 851.944 88.7142H857.944ZM785.16 33.547C764.017 33.547 745.864 37.345 732.919 46.2396C719.784 55.2635 712.375 69.2829 712.375 88.7142H718.375C718.375 71.0299 724.992 58.9657 736.316 51.1849C747.829 43.2748 764.569 39.547 785.16 39.547V33.547ZM712.375 88.7142C712.375 108.065 719.789 122.041 732.922 131.041C745.866 139.912 764.016 143.71 785.16 143.71V137.71C764.569 137.71 747.828 133.983 736.313 126.092C724.987 118.33 718.375 106.308 718.375 88.7142H712.375ZM785.16 113.252C771.658 113.252 762.27 111.565 756.301 107.775C750.661 104.194 747.623 98.4227 747.623 88.7142H741.623C741.623 99.8727 745.256 107.87 753.085 112.841C760.586 117.603 771.466 119.252 785.16 119.252V113.252ZM747.623 88.7142C747.623 78.9106 750.668 73.0982 756.307 69.4998C762.273 65.6927 771.657 64.0058 785.16 64.0058V58.0058C771.467 58.0058 760.583 59.6541 753.079 64.4418C745.249 69.4381 741.623 77.4799 741.623 88.7142H747.623ZM785.16 64.0058C798.575 64.0058 807.915 65.6922 813.859 69.4974C819.48 73.0955 822.525 78.9097 822.525 88.7142H828.525C828.525 77.4808 824.9 69.4408 817.094 64.4441C809.612 59.6546 798.769 58.0058 785.16 58.0058V64.0058ZM822.525 88.7142C822.525 98.4236 819.487 104.197 813.865 107.778C807.918 111.566 798.574 113.252 785.16 113.252V119.252C798.77 119.252 809.609 117.602 817.088 112.838C824.893 107.867 828.525 99.8718 828.525 88.7142H822.525ZM895.325 55.8746H892.325V62.047L897.179 58.2335L895.325 55.8746ZM895.325 38.2574H898.325V35.2574H895.325V38.2574ZM866.078 38.2574V35.2574H863.078V38.2574H866.078ZM866.078 139H863.078V142H866.078V139ZM895.325 139V142H898.325V139H895.325ZM895.325 82.5568L893.045 80.6075L892.325 81.4493V82.5568H895.325ZM976.569 139H973.569V142H976.569V139ZM1005.99 139V142H1008.97L1008.99 139.018L1005.99 139ZM1006.33 83.241L1009.33 83.2594L1009.33 83.2363L1009.33 83.2133L1006.33 83.241ZM953.992 33.547C928.851 33.547 908.36 41.818 893.472 53.5156L897.179 58.2335C911.026 47.3538 930.216 39.547 953.992 39.547V33.547ZM898.325 55.8746V38.2574H892.325V55.8746H898.325ZM895.325 35.2574H866.078V41.2574H895.325V35.2574ZM863.078 38.2574V139H869.078V38.2574H863.078ZM866.078 142H895.325V136H866.078V142ZM898.325 139V82.5568H892.325V139H898.325ZM897.606 84.5061C901.751 79.6575 908.887 74.7174 917.512 70.9855C926.105 67.2674 935.919 64.861 945.269 64.861V58.861C934.95 58.861 924.325 61.5002 915.129 65.4789C905.966 69.4438 897.965 74.8516 893.045 80.6075L897.606 84.5061ZM945.269 64.861C956.94 64.861 963.724 67.5562 967.714 72.0771C971.78 76.6854 973.569 83.8744 973.569 94.3586H979.569C979.569 83.4627 977.767 74.4029 972.213 68.1074C966.581 61.7246 957.715 58.861 945.269 58.861V64.861ZM973.569 94.3586V139H979.569V94.3586H973.569ZM976.569 142H1005.99V136H976.569V142ZM1008.99 139.018L1009.33 83.2594L1003.33 83.2226L1002.99 138.982L1008.99 139.018ZM1009.33 83.2133C1009.15 63.9071 1002.47 51.2501 991.866 43.5483C981.435 35.9729 967.686 33.547 953.992 33.547V39.547C967.152 39.547 979.4 41.9103 988.34 48.403C997.106 54.7692 1003.17 65.4591 1003.33 83.2686L1009.33 83.2133ZM1115.34 62.7162V65.7162H1118.34V62.7162H1115.34ZM1115.34 38.2574H1118.34V35.2574H1115.34V38.2574ZM1067.62 38.2574H1064.62V41.2574H1067.62V38.2574ZM1067.62 9.0096H1070.62V5.03558L1066.8 6.12439L1067.62 9.0096ZM1038.2 17.3906L1037.38 14.5054L1035.2 15.1258V17.3906H1038.2ZM1038.2 38.2574V41.2574H1041.2V38.2574H1038.2ZM1011.69 38.2574V35.2574H1008.69V38.2574H1011.69ZM1011.69 62.7162H1008.69V65.7162H1011.69V62.7162ZM1038.2 62.7162H1041.2V59.7162H1038.2V62.7162ZM1115.34 138.145L1115.86 141.1L1118.34 140.664V138.145H1115.34ZM1115.34 114.541H1118.34V111.075L1114.91 111.572L1115.34 114.541ZM1067.62 62.7162V59.7162H1064.62V62.7162H1067.62ZM1118.34 62.7162V38.2574H1112.34V62.7162H1118.34ZM1115.34 35.2574H1067.62V41.2574H1115.34V35.2574ZM1070.62 38.2574V9.0096H1064.62V38.2574H1070.62ZM1066.8 6.12439L1037.38 14.5054L1039.02 20.2758L1068.44 11.8948L1066.8 6.12439ZM1035.2 17.3906V38.2574H1041.2V17.3906H1035.2ZM1038.2 35.2574H1011.69V41.2574H1038.2V35.2574ZM1008.69 38.2574V62.7162H1014.69V38.2574H1008.69ZM1011.69 65.7162H1038.2V59.7162H1011.69V65.7162ZM1035.2 62.7162V108.726H1041.2V62.7162H1035.2ZM1035.2 108.726C1035.2 120.709 1039.78 129.673 1048.11 135.513C1056.26 141.231 1067.67 143.71 1080.96 143.71V137.71C1068.26 137.71 1058.28 135.315 1051.55 130.6C1045 126.007 1041.2 118.978 1041.2 108.726H1035.2ZM1080.96 143.71C1094.6 143.71 1105.89 142.848 1115.86 141.1L1114.82 135.19C1105.29 136.863 1094.35 137.71 1080.96 137.71V143.71ZM1118.34 138.145V114.541H1112.34V138.145H1118.34ZM1114.91 111.572C1103.31 113.253 1098.34 113.252 1089.17 113.252V119.252C1098.47 119.252 1103.76 119.25 1115.77 117.51L1114.91 111.572ZM1089.17 113.252C1080.29 113.252 1076.2 111.94 1074 109.378C1072.87 108.067 1072 106.167 1071.43 103.262C1070.85 100.341 1070.62 96.6042 1070.62 91.793H1064.62C1064.62 96.7309 1064.85 100.926 1065.54 104.42C1066.23 107.928 1067.41 110.924 1069.45 113.291C1073.57 118.083 1080.27 119.252 1089.17 119.252V113.252ZM1070.62 91.793V62.7162H1064.62V91.793H1070.62ZM1067.62 65.7162H1115.34V59.7162H1067.62V65.7162ZM1192.38 143.71C1213.44 143.71 1231.59 139.911 1244.55 131.043C1257.71 122.046 1265.17 108.072 1265.17 88.7142H1259.17C1259.17 106.301 1252.52 118.326 1241.17 126.091C1229.63 133.984 1212.88 137.71 1192.38 137.71V143.71ZM1265.17 88.7142C1265.17 69.2763 1257.71 55.259 1244.56 46.2382C1231.59 37.3459 1213.44 33.547 1192.38 33.547V39.547C1212.88 39.547 1229.63 43.274 1241.16 51.1863C1252.51 58.9702 1259.17 71.0365 1259.17 88.7142H1265.17ZM1192.38 33.547C1171.24 33.547 1153.09 37.345 1140.14 46.2396C1127.01 55.2635 1119.6 69.2829 1119.6 88.7142H1125.6C1125.6 71.0299 1132.21 58.9657 1143.54 51.1849C1155.05 43.2748 1171.79 39.547 1192.38 39.547V33.547ZM1119.6 88.7142C1119.6 108.065 1127.01 122.041 1140.14 131.041C1153.09 139.912 1171.24 143.71 1192.38 143.71V137.71C1171.79 137.71 1155.05 133.983 1143.54 126.092C1132.21 118.33 1125.6 106.308 1125.6 88.7142H1119.6ZM1192.38 113.252C1178.88 113.252 1169.49 111.565 1163.52 107.775C1157.88 104.194 1154.85 98.4227 1154.85 88.7142H1148.85C1148.85 99.8727 1152.48 107.87 1160.31 112.841C1167.81 117.603 1178.69 119.252 1192.38 119.252V113.252ZM1154.85 88.7142C1154.85 78.9106 1157.89 73.0982 1163.53 69.4998C1169.5 65.6927 1178.88 64.0058 1192.38 64.0058V58.0058C1178.69 58.0058 1167.8 59.6541 1160.3 64.4418C1152.47 69.4381 1148.85 77.4799 1148.85 88.7142H1154.85ZM1192.38 64.0058C1205.8 64.0058 1215.14 65.6922 1221.08 69.4974C1226.7 73.0955 1229.75 78.9097 1229.75 88.7142H1235.75C1235.75 77.4808 1232.12 69.4408 1224.32 64.4441C1216.83 59.6546 1205.99 58.0058 1192.38 58.0058V64.0058ZM1229.75 88.7142C1229.75 98.4236 1226.71 104.197 1221.09 107.778C1215.14 111.566 1205.8 113.252 1192.38 113.252V119.252C1205.99 119.252 1216.83 117.602 1224.31 112.838C1232.12 107.867 1235.75 99.8718 1235.75 88.7142H1229.75Z" fill="url(#paint0_linear_17_6690)"/>
<defs>
<linearGradient id="paint0_linear_17_6690" x1="630.5" y1="-15" x2="630.5" y2="120" gradientUnits="userSpaceOnUse">
<stop stop-color="#E74141"/>
<stop offset="1" stop-color="#241B23" stop-opacity="0.1"/>
</linearGradient>
</defs>
</svg>
