<svg width="132" height="132" viewBox="0 0 132 132" fill="none" xmlns="http://www.w3.org/2000/svg">
<g filter="url(#filter0_d_26_6636)">
<path d="M66 57.8335C71.5253 57.8335 76.8244 60.0284 80.7314 63.9354C84.6384 67.8424 86.8333 73.1415 86.8333 78.6668V103.667H78.5V78.6668C78.5002 75.4785 77.282 72.4105 75.0946 70.0907C72.9073 67.771 69.9162 66.3747 66.7333 66.1877L66 66.1668C62.8116 66.1667 59.7437 67.3849 57.4239 69.5722C55.1041 71.7595 53.7079 74.7506 53.5208 77.9335L53.5 78.6668V103.667H45.1666V78.6668C45.1666 73.1415 47.3616 67.8424 51.2686 63.9354C55.1756 60.0284 60.4746 57.8335 66 57.8335ZM38.9166 70.3335C40.0791 70.3335 41.2083 70.471 42.2916 70.7252C41.5792 72.846 41.1574 75.0536 41.0375 77.2877L41 78.6668V79.0252C40.521 78.8538 40.0229 78.7418 39.5166 78.6918L38.9166 78.6668C37.363 78.6669 35.865 79.2457 34.7149 80.2902C33.5648 81.3348 32.845 82.7703 32.6958 84.3168L32.6666 84.9168V103.667H24.3333V84.9168C24.3333 81.0491 25.8698 77.3398 28.6047 74.6049C31.3396 71.87 35.0489 70.3335 38.9166 70.3335ZM93.0833 70.3335C96.9511 70.3335 100.66 71.87 103.395 74.6049C106.13 77.3398 107.667 81.0491 107.667 84.9168V103.667H99.3333V84.9168C99.3332 83.3632 98.7545 81.8652 97.7099 80.7151C96.6653 79.565 95.2298 78.8452 93.6833 78.696L93.0833 78.6668C92.3541 78.6668 91.6542 78.7918 91 79.021V78.6668C91 75.8918 90.55 73.2252 89.7125 70.7335C90.7916 70.471 91.9208 70.3335 93.0833 70.3335ZM38.9166 45.3335C41.6793 45.3335 44.3288 46.431 46.2823 48.3845C48.2358 50.338 49.3333 52.9875 49.3333 55.7502C49.3333 58.5128 48.2358 61.1624 46.2823 63.1159C44.3288 65.0694 41.6793 66.1668 38.9166 66.1668C36.154 66.1668 33.5045 65.0694 31.551 63.1159C29.5974 61.1624 28.5 58.5128 28.5 55.7502C28.5 52.9875 29.5974 50.338 31.551 48.3845C33.5045 46.431 36.154 45.3335 38.9166 45.3335ZM93.0833 45.3335C95.846 45.3335 98.4955 46.431 100.449 48.3845C102.403 50.338 103.5 52.9875 103.5 55.7502C103.5 58.5128 102.403 61.1624 100.449 63.1159C98.4955 65.0694 95.846 66.1668 93.0833 66.1668C90.3206 66.1668 87.6711 65.0694 85.7176 63.1159C83.7641 61.1624 82.6666 58.5128 82.6666 55.7502C82.6666 52.9875 83.7641 50.338 85.7176 48.3845C87.6711 46.431 90.3206 45.3335 93.0833 45.3335ZM38.9166 53.6668C38.3641 53.6668 37.8342 53.8863 37.4435 54.277C37.0528 54.6677 36.8333 55.1976 36.8333 55.7502C36.8333 56.3027 37.0528 56.8326 37.4435 57.2233C37.8342 57.614 38.3641 57.8335 38.9166 57.8335C39.4692 57.8335 39.9991 57.614 40.3898 57.2233C40.7805 56.8326 41 56.3027 41 55.7502C41 55.1976 40.7805 54.6677 40.3898 54.277C39.9991 53.8863 39.4692 53.6668 38.9166 53.6668ZM93.0833 53.6668C92.5308 53.6668 92.0009 53.8863 91.6102 54.277C91.2195 54.6677 91 55.1976 91 55.7502C91 56.3027 91.2195 56.8326 91.6102 57.2233C92.0009 57.614 92.5308 57.8335 93.0833 57.8335C93.6358 57.8335 94.1658 57.614 94.5565 57.2233C94.9472 56.8326 95.1666 56.3027 95.1666 55.7502C95.1666 55.1976 94.9472 54.6677 94.5565 54.277C94.1658 53.8863 93.6358 53.6668 93.0833 53.6668ZM66 20.3335C70.4203 20.3335 74.6595 22.0894 77.7851 25.2151C80.9107 28.3407 82.6666 32.5799 82.6666 37.0002C82.6666 41.4204 80.9107 45.6597 77.7851 48.7853C74.6595 51.9109 70.4203 53.6668 66 53.6668C61.5797 53.6668 57.3405 51.9109 54.2149 48.7853C51.0893 45.6597 49.3333 41.4204 49.3333 37.0002C49.3333 32.5799 51.0893 28.3407 54.2149 25.2151C57.3405 22.0894 61.5797 20.3335 66 20.3335ZM66 28.6668C63.7898 28.6668 61.6702 29.5448 60.1074 31.1076C58.5446 32.6704 57.6666 34.79 57.6666 37.0002C57.6666 39.2103 58.5446 41.3299 60.1074 42.8927C61.6702 44.4555 63.7898 45.3335 66 45.3335C68.2101 45.3335 70.3297 44.4555 71.8925 42.8927C73.4553 41.3299 74.3333 39.2103 74.3333 37.0002C74.3333 34.79 73.4553 32.6704 71.8925 31.1076C70.3297 29.5448 68.2101 28.6668 66 28.6668Z" fill="#E74141"/>
</g>
<defs>
<filter id="filter0_d_26_6636" x="0.333313" y="0.333496" width="131.333" height="131.333" filterUnits="userSpaceOnUse" color-interpolation-filters="sRGB">
<feFlood flood-opacity="0" result="BackgroundImageFix"/>
<feColorMatrix in="SourceAlpha" type="matrix" values="0 0 0 0 0 0 0 0 0 0 0 0 0 0 0 0 0 0 127 0" result="hardAlpha"/>
<feOffset dy="4"/>
<feGaussianBlur stdDeviation="12"/>
<feComposite in2="hardAlpha" operator="out"/>
<feColorMatrix type="matrix" values="0 0 0 0 0.905882 0 0 0 0 0.254902 0 0 0 0 0.254902 0 0 0 1 0"/>
<feBlend mode="normal" in2="BackgroundImageFix" result="effect1_dropShadow_26_6636"/>
<feBlend mode="normal" in="SourceGraphic" in2="effect1_dropShadow_26_6636" result="shape"/>
</filter>
</defs>
</svg>
