<svg width="122" height="136" viewBox="0 0 122 136" fill="none" xmlns="http://www.w3.org/2000/svg">
<g filter="url(#filter0_d_26_6640)">
<path d="M31.8333 67.1669C31.8333 45.9669 43.9292 27.8502 61 20.5752C78.0708 27.8502 90.1667 45.9669 90.1667 67.1669C90.1667 70.596 89.85 73.9419 89.25 77.1794L97.3333 84.8127C97.6675 85.129 97.8876 85.547 97.9592 86.0015C98.0308 86.456 97.9499 86.9215 97.7292 87.3252L87.3333 106.388C87.1783 106.672 86.959 106.917 86.6929 107.102C86.4267 107.287 86.1211 107.407 85.8003 107.453C85.4795 107.499 85.1523 107.47 84.8449 107.367C84.5374 107.265 84.2581 107.092 84.0292 106.863L74.7208 97.5544C73.9396 96.7729 72.88 96.3338 71.775 96.3335H50.225C49.12 96.3338 48.0604 96.7729 47.2792 97.5544L37.9708 106.863C37.7419 107.092 37.4626 107.265 37.1551 107.367C36.8477 107.47 36.5205 107.499 36.1997 107.453C35.8789 107.407 35.5733 107.287 35.3072 107.102C35.041 106.917 34.8217 106.672 34.6667 106.388L24.2708 87.3252C24.0501 86.9215 23.9692 86.456 24.0408 86.0015C24.1124 85.547 24.3325 85.129 24.6667 84.8127L32.75 77.1794C32.1542 73.9419 31.8333 70.596 31.8333 67.1669ZM37.9833 95.0669L41.3875 91.6627C43.7312 89.3183 46.9101 88.0009 50.225 88.0002H71.775C75.0899 88.0009 78.2688 89.3183 80.6125 91.6627L84.0167 95.0669L88.1083 87.5669L83.525 83.2335C82.512 82.2769 81.7551 81.0814 81.3234 79.7567C80.8918 78.4319 80.7992 77.02 81.0542 75.6502C81.5708 72.8835 81.8333 70.046 81.8333 67.1669C81.8333 51.0419 73.5208 36.7502 61 29.8335C48.4792 36.7502 40.1667 51.0419 40.1667 67.1669C40.1667 70.046 40.4292 72.8835 40.9458 75.6544C41.2008 77.0242 41.1082 78.436 40.6766 79.7608C40.2449 81.0856 39.488 82.281 38.475 83.2377L33.8917 87.5669L37.9833 95.0669ZM61 67.1669C58.7899 67.1669 56.6702 66.2889 55.1074 64.7261C53.5446 63.1633 52.6667 61.0437 52.6667 58.8335C52.6667 56.6234 53.5446 54.5038 55.1074 52.941C56.6702 51.3782 58.7899 50.5002 61 50.5002C63.2101 50.5002 65.3298 51.3782 66.8926 52.941C68.4554 54.5038 69.3333 56.6234 69.3333 58.8335C69.3333 61.0437 68.4554 63.1633 66.8926 64.7261C65.3298 66.2889 63.2101 67.1669 61 67.1669Z" fill="#E74141"/>
</g>
<defs>
<filter id="filter0_d_26_6640" x="0.0154419" y="0.575195" width="121.969" height="134.899" filterUnits="userSpaceOnUse" color-interpolation-filters="sRGB">
<feFlood flood-opacity="0" result="BackgroundImageFix"/>
<feColorMatrix in="SourceAlpha" type="matrix" values="0 0 0 0 0 0 0 0 0 0 0 0 0 0 0 0 0 0 127 0" result="hardAlpha"/>
<feOffset dy="4"/>
<feGaussianBlur stdDeviation="12"/>
<feComposite in2="hardAlpha" operator="out"/>
<feColorMatrix type="matrix" values="0 0 0 0 0.905882 0 0 0 0 0.254902 0 0 0 0 0.254902 0 0 0 1 0"/>
<feBlend mode="normal" in2="BackgroundImageFix" result="effect1_dropShadow_26_6640"/>
<feBlend mode="normal" in="SourceGraphic" in2="effect1_dropShadow_26_6640" result="shape"/>
</filter>
</defs>
</svg>
