<svg width="148" height="134" viewBox="0 0 148 134" fill="none" xmlns="http://www.w3.org/2000/svg">
<g filter="url(#filter0_d_26_6627)">
<path d="M113.304 48.5187H109.739V23.5645C109.739 22.3813 109.151 21.275 108.171 20.6124C107.192 19.9492 105.947 19.8157 104.848 20.2558L52.1891 41.3903H34.6952C31.8587 41.3903 29.1379 42.5168 27.1325 44.5228C25.1264 46.5282 24 49.249 24 52.0855V66.346C24 69.1825 25.1265 71.9025 27.1325 73.9087C29.1379 75.914 31.8587 77.0412 34.6952 77.0412H34.8735V101.997V101.997C34.8735 102.943 35.2487 103.849 35.9172 104.517C36.5856 105.187 37.4928 105.562 38.438 105.562H52.6985C53.6438 105.562 54.5509 105.187 55.2194 104.517C55.8878 103.849 56.2638 102.942 56.2638 101.997V78.6734L104.849 98.1749L104.848 98.1757C105.269 98.3465 105.72 98.4338 106.174 98.4323C107.12 98.4323 108.027 98.0563 108.695 97.3879C109.364 96.7194 109.74 95.8122 109.74 94.8671V69.911H113.305H113.304C117.125 69.911 120.656 67.8728 122.567 64.5634C124.478 61.2547 124.478 57.1776 122.567 53.8682C120.656 50.5595 117.125 48.5206 113.304 48.5206L113.304 48.5187ZM31.1285 66.3445V52.084C31.1285 51.1388 31.5045 50.2316 32.173 49.5632C32.8414 48.8948 33.7479 48.5187 34.6938 48.5187H49.3109V69.9091H34.6938C33.7478 69.9091 32.8414 69.5339 32.173 68.8654C31.5046 68.197 31.1285 67.2898 31.1285 66.3446V66.3445ZM49.132 98.4301H42.0021V77.0397H49.132V98.4301ZM102.608 89.5926L56.441 71.0544L56.4417 47.3646L102.609 28.8367L102.608 89.5926ZM113.303 62.7802H109.739V55.6503H113.304H113.303C114.577 55.6503 115.754 56.3292 116.391 57.4326C117.027 58.5359 117.027 59.8946 116.391 60.9979C115.754 62.1005 114.577 62.7802 113.303 62.7802H113.303Z" fill="#E74141"/>
</g>
<defs>
<filter id="filter0_d_26_6627" x="0" y="0" width="148" height="133.562" filterUnits="userSpaceOnUse" color-interpolation-filters="sRGB">
<feFlood flood-opacity="0" result="BackgroundImageFix"/>
<feColorMatrix in="SourceAlpha" type="matrix" values="0 0 0 0 0 0 0 0 0 0 0 0 0 0 0 0 0 0 127 0" result="hardAlpha"/>
<feOffset dy="4"/>
<feGaussianBlur stdDeviation="12"/>
<feComposite in2="hardAlpha" operator="out"/>
<feColorMatrix type="matrix" values="0 0 0 0 0.905882 0 0 0 0 0.254902 0 0 0 0 0.254902 0 0 0 1 0"/>
<feBlend mode="normal" in2="BackgroundImageFix" result="effect1_dropShadow_26_6627"/>
<feBlend mode="normal" in="SourceGraphic" in2="effect1_dropShadow_26_6627" result="shape"/>
</filter>
</defs>
</svg>
