<svg width="1512" height="1478" viewBox="0 0 1512 1478" fill="none" xmlns="http://www.w3.org/2000/svg">
<path opacity="0.0526316" d="M112.127 1193.25C144.273 1236.02 247.013 1307.59 400.81 1251.71C593.057 1181.87 667.41 996.734 838.993 900.739C965.635 829.888 1305.93 723.536 1501.6 841.056" stroke="#E74141" stroke-opacity="0.4" stroke-width="1.45842"/>
<path opacity="0.105263" d="M80.4204 1103.6C107.919 1149.49 202.616 1231.4 361.412 1191.91C559.906 1142.54 653.203 966.195 833.881 888.662C967.234 831.436 1316.78 761.237 1499.09 898.566" stroke="#E74141" stroke-opacity="0.4" stroke-width="1.45842"/>
<path opacity="0.157895" d="M56.4667 1012.73C79.0179 1061.25 164.634 1152.61 326.687 1129.93C529.255 1101.59 640.474 935.955 828.266 877.732C966.871 834.76 1321.84 801.482 1488.8 957.117" stroke="#E74141" stroke-opacity="0.4" stroke-width="1.45842"/>
<path opacity="0.210526" d="M40.3501 921.472C57.7065 972.079 133.304 1071.89 296.84 1066.28C501.26 1059.26 629.184 906.162 822.033 867.888C964.37 839.638 1320.87 843.647 1470.65 1015.88" stroke="#E74141" stroke-opacity="0.4" stroke-width="1.45842"/>
<path opacity="0.263158" d="M32.0689 830.643C44.0404 882.787 108.79 989.953 272.017 1001.46C476.051 1015.85 619.277 876.967 815.071 859.06C959.581 845.844 1313.71 887.095 1444.66 1074.04" stroke="#E74141" stroke-opacity="0.4" stroke-width="1.45842"/>
<path opacity="0.315789" d="M31.5355 741.06C37.9909 794.169 91.1841 907.517 252.314 936.027C453.726 971.665 610.685 848.51 807.278 851.167C952.378 853.129 1300.25 931.171 1410.95 1130.78" stroke="#E74141" stroke-opacity="0.4" stroke-width="1.45842"/>
<path opacity="0.368421" d="M38.5768 653.523C39.4453 707.017 80.4991 825.303 237.766 870.5C434.35 926.996 603.322 820.922 798.56 844.115C942.66 861.233 1280.47 975.21 1369.7 1185.3" stroke="#E74141" stroke-opacity="0.4" stroke-width="1.45842"/>
<path opacity="0.421053" d="M52.9375 568.817C48.2097 622.109 76.6742 744.039 228.355 805.427C417.957 882.161 597.091 794.331 788.835 837.805C930.357 869.892 1254.4 1018.56 1321.18 1236.82" stroke="#E74141" stroke-opacity="0.4" stroke-width="1.45842"/>
<path opacity="0.473684" d="M74.2819 487.69C64.0094 540.195 79.5729 664.432 224.006 741.339C404.548 837.472 591.882 768.848 778.031 832.126C915.424 878.83 1222.16 1060.55 1265.75 1284.6" stroke="#E74141" stroke-opacity="0.4" stroke-width="1.45842"/>
<path opacity="0.526316" d="M102.197 410.852C86.4927 461.996 88.9846 587.179 224.588 678.762C394.092 793.24 587.572 744.574 766.088 826.963C897.846 887.773 1183.9 1100.56 1203.84 1327.94" stroke="#E74141" stroke-opacity="0.4" stroke-width="1.45842"/>
<path opacity="0.578947" d="M136.2 338.964C115.235 388.186 104.628 512.944 229.916 618.2C386.525 749.769 584.032 721.593 752.958 822.191C877.638 896.44 1139.89 1137.96 1135.95 1366.18" stroke="#E74141" stroke-opacity="0.4" stroke-width="1.45842"/>
<path opacity="0.631579" d="M175.737 272.641C149.743 319.402 126.153 442.368 239.752 560.143C381.75 707.362 581.121 699.985 738.606 817.69C854.842 904.565 1090.41 1172.18 1062.63 1398.73" stroke="#E74141" stroke-opacity="0.4" stroke-width="1.45842"/>
<path opacity="0.684211" d="M220.2 212.426C189.46 256.214 153.146 376.041 253.811 505.045C379.643 666.3 578.693 679.804 723.012 813.325C829.53 911.874 1035.83 1202.64 984.53 1425.06" stroke="#E74141" stroke-opacity="0.4" stroke-width="1.45842"/>
<path opacity="0.736842" d="M268.92 158.801C233.772 199.136 185.131 314.51 271.761 453.33C380.048 626.855 576.596 661.091 706.167 808.966C801.8 918.109 976.578 1228.85 902.309 1444.68" stroke="#E74141" stroke-opacity="0.4" stroke-width="1.45842"/>
<path opacity="0.789474" d="M321.187 112.179C282.015 148.618 221.581 258.276 293.226 405.391C382.781 589.284 574.674 643.878 688.078 804.487C771.779 923.029 913.118 1250.34 816.695 1457.22" stroke="#E74141" stroke-opacity="0.4" stroke-width="1.45842"/>
<path opacity="0.842105" d="M376.249 72.8869C333.482 105.032 261.917 207.773 317.792 361.57C387.635 553.817 572.769 628.17 668.764 799.753C739.615 926.394 845.967 1266.68 728.447 1462.36" stroke="#E74141" stroke-opacity="0.4" stroke-width="1.45842"/>
<path opacity="0.894737" d="M433.325 41.18C387.432 68.679 305.52 163.376 345.012 322.171C394.377 520.666 570.726 613.963 648.259 794.641C705.485 927.994 775.684 1277.54 638.354 1459.85" stroke="#E74141" stroke-opacity="0.4" stroke-width="1.45842"/>
<path opacity="0.947368" d="M491.61 17.2263C443.095 39.7776 351.732 125.393 374.409 287.447C402.756 490.014 568.386 601.234 626.609 789.026C669.582 927.631 702.859 1282.6 547.224 1449.56" stroke="#E74141" stroke-opacity="0.4" stroke-width="1.45842"/>
<path d="M550.287 1.10938C499.68 18.4658 399.869 94.0628 405.483 257.599C412.5 462.019 565.597 589.943 603.871 782.792C632.121 925.13 628.112 1281.63 455.877 1431.41" stroke="#E74141" stroke-opacity="0.4" stroke-width="1.45842"/>
</svg>
