<svg width="1510" height="1535" viewBox="0 0 1510 1535" fill="none" xmlns="http://www.w3.org/2000/svg">
<path d="M594.755 91.7385C554.808 -12.1971 357.178 -63.5225 389.791 143.423C395.139 177.355 395.677 235.782 389.791 306.901C384.4 372.05 278.858 407.698 246.46 491.877C195.65 623.895 385.623 715.913 355.392 785.313C315.796 876.209 194.556 915.647 127.495 965.376C64.3636 1012.19 24.1511 1087.31 8.71099 1164.53C-18.3768 1300.02 30.7808 1442.01 166.194 1449.07C233.981 1452.61 323.384 1422.33 435.657 1340.51C485.855 1303.92 530.118 1273.77 569.458 1249.39C670.71 1186.65 643.488 1335.07 763.886 1340.51C832.489 1343.61 904.14 1215.47 958.38 1283.82C996.948 1332.42 1041.21 1391.38 1104.41 1452.01C1215.41 1558.47 1354.19 1574.15 1373.82 1422.2C1383.09 1350.47 1365.8 1241.39 1306.51 1086.88C1268.57 988 1362.95 991.486 1373.82 864.775C1384.7 738.064 1295.77 679.629 1360.14 627.186L1361.43 626.135C1410.5 586.167 1462.83 543.539 1491.41 461.663C1516.03 391.135 1513.67 321.281 1491.41 267.606C1467.58 210.162 1420.94 171.247 1360.14 169.867C1299.14 168.482 1223.89 204.885 1143.11 298.272C1089.86 359.845 1053.79 216.575 958.38 231.221C862.97 245.867 849.709 384.103 792.552 344.009C693.267 274.362 641.54 213.465 594.755 91.7385Z" stroke="#E74141" stroke-opacity="0.3" stroke-width="1.19883"/>
<path d="M787.473 658.683C781.393 642.727 753.061 646.915 751.627 664.207C749.994 683.896 759.946 709.553 758.796 729.289C756.575 767.395 743.113 778.241 716.309 798.325C706.701 805.512 700.581 817.044 698.231 828.9C694.109 849.699 701.59 871.496 722.198 872.58C732.514 873.123 746.12 868.476 763.206 855.914C770.846 850.298 777.582 845.669 783.569 841.927C809.631 824.33 833.887 838.118 842.757 847.212C848.627 854.673 855.362 863.725 864.981 873.032C881.874 889.376 907.455 887.234 905.982 868.456C903.9 841.927 858.607 742.902 905.982 725.635C927.988 717.615 927.265 699.446 923.876 691.206C920.25 682.387 913.152 676.413 903.9 676.202C894.617 675.989 879.237 691.206 870.871 695.914C839.985 713.293 812.427 722.277 787.473 658.683Z" stroke="#E74141" stroke-opacity="0.3" stroke-width="1.19883"/>
<path d="M422.835 188.699C393.891 0.307381 574.492 47.2696 611.116 142.552C655.954 259.04 705.525 313.634 798.672 375.432C851.058 411.698 863.664 285.478 951.026 271.759C1038.39 258.041 1071.76 388.051 1120.64 332.041C1194.98 247.094 1264.1 214.513 1319.93 216.569C1375.4 218.197 1417.93 254.198 1439.42 307.055C1459.48 356.483 1461.14 420.627 1437.74 485.157C1407.2 561.86 1363.1 609.604 1318.3 648.64C1259.8 697.201 1340.16 750.838 1329.51 866.198C1318.86 981.557 1232.02 978.066 1265.77 1067.29C1318.85 1207.03 1333.96 1305.46 1325 1370.04C1306.73 1507.88 1179.71 1493.1 1077.76 1396.02C1019.31 1340.65 977.892 1287.09 941.615 1243.66C891.718 1181.82 825.911 1298.81 762.797 1296.5C652.472 1292.12 676.543 1157.47 583.795 1214.8C547.38 1237.22 506.562 1264.74 460.419 1298C356.39 1372.35 274.364 1397.93 213.061 1392.84C89.9589 1385.87 45.4241 1256.17 70.3457 1132.42C84.6694 1061.68 121.615 992.921 179.494 950.003C242.949 902.947 354.487 866.087 390.716 779.95C418.275 715.918 245.224 631.175 291.259 510.039C320.543 432.427 416.384 398.971 421.363 338.81C426.784 273.324 426.971 219.681 422.835 188.699Z" stroke="#E74141" stroke-opacity="0.3" stroke-width="1.19883"/>
<path d="M457.362 235.883C432.129 66.6623 595.437 109.107 628.683 195.422C671.51 306.277 718.854 354.392 805.727 408.141C853.266 440.461 865.198 326.672 944.384 313.926C1023.57 301.18 1054.21 417.506 1098.64 367.242C1166.43 291.015 1229.31 262.361 1279.89 265.08C1329.96 266.948 1368.31 299.916 1387.43 348.012C1405.26 393.029 1406.22 451.254 1384.07 509.573C1351.86 580.131 1316.72 632.788 1276.64 670.453C1224.09 714.971 1295.77 763.633 1285.36 867.263C1274.94 970.893 1195.77 967.408 1225.29 1046.69C1272.07 1171.2 1284.99 1258.65 1276.34 1315.88C1259.47 1439.15 1144.38 1425.32 1051.64 1337.95C998.015 1288.01 959.506 1240.03 925.572 1201.92C880.092 1146.78 820.226 1252.25 762.692 1250.73C662.602 1247.42 683.486 1126.99 599.378 1178.71C565.941 1199.1 528.628 1223.9 486.607 1253.73C390.974 1320.36 316.445 1341.16 261.716 1334.53C151.105 1327.69 111.258 1210.69 133.977 1099.09C147.164 1035.08 180.789 972.893 233.33 934.015C293.088 889.789 394.76 855.629 427.57 774.54C452.417 716.089 296.539 638.9 337.733 529.045C363.859 458.258 449.859 427.106 454.42 372.13C459.367 312.494 460.28 263.813 457.362 235.883Z" stroke="#E74141" stroke-opacity="0.3" stroke-width="1.19883"/>
<path d="M490.396 281.163C468.836 130.495 615.103 168.576 645.023 246.238C685.906 351.851 731.097 393.664 811.831 439.564C854.596 468.056 865.873 366.285 937.005 354.466C1008.14 342.646 1036.08 445.714 1076.13 401.012C1137.48 333.226 1194.22 308.394 1239.63 311.783C1284.37 313.899 1318.61 343.953 1335.38 387.461C1351.01 428.231 1351.27 480.746 1330.34 533.066C1296.41 597.734 1270.18 655.476 1234.75 691.902C1188.07 732.537 1251.18 776.401 1240.99 868.68C1230.8 960.958 1159.17 957.467 1184.5 1027.09C1225.05 1136.83 1235.8 1213.63 1227.45 1263.72C1211.95 1372.87 1108.62 1359.94 1024.94 1281.95C976.066 1237.27 940.402 1194.69 908.759 1161.76C867.625 1113.12 813.608 1207.45 761.564 1206.72C671.555 1204.47 689.284 1097.8 613.686 1144.11C583.175 1162.54 549.309 1184.72 511.345 1211.22C423.96 1270.37 356.812 1286.48 308.574 1278.29C210.283 1271.56 175.063 1166.83 195.615 1066.98C207.685 1009.45 238.042 953.619 285.326 918.639C341.479 877.086 433.444 845.505 462.885 769.176C485.057 716.093 346.114 646.179 382.53 547.207C405.539 482.989 481.83 454.029 485.978 404.04C490.46 350.038 492.1 306.141 490.396 281.163Z" stroke="#E74141" stroke-opacity="0.3" stroke-width="1.19883"/>
<path d="M524.906 326.439C507.058 194.331 636.024 228.048 662.565 297.054C701.431 397.435 744.391 432.942 818.843 470.988C856.758 495.65 867.361 405.899 930.313 395.007C993.264 384.114 1018.47 473.917 1054.07 434.78C1108.87 375.438 1159.37 354.43 1199.53 358.491C1238.85 360.855 1268.92 387.995 1283.32 426.915C1296.71 463.438 1296.27 510.243 1276.6 556.563C1241.01 615.34 1223.74 678.186 1193.02 713.377C1152.3 750.13 1206.73 789.195 1196.78 870.119C1186.82 951.042 1122.87 947.544 1143.95 1007.51C1178.21 1102.47 1186.77 1168.6 1178.73 1211.55C1164.62 1306.59 1073.24 1294.55 998.77 1225.95C954.731 1186.52 921.975 1149.35 892.678 1121.6C855.964 1079.46 807.891 1162.66 761.431 1162.71C681.662 1161.51 696.204 1068.63 629.251 1109.52C601.719 1125.99 571.36 1145.54 537.521 1168.72C458.538 1220.39 398.891 1231.79 357.228 1222.04C271.434 1215.41 240.903 1122.96 259.251 1034.86C270.182 983.828 297.217 934.347 339.162 903.265C391.611 864.383 473.705 835.379 499.725 763.806C519.183 716.091 397.421 653.452 428.995 565.365C448.845 507.715 515.291 480.946 519.021 435.945C523.029 387.578 525.393 348.466 524.906 326.439Z" stroke="#E74141" stroke-opacity="0.3" stroke-width="1.19883"/>
<path d="M559.402 373.848C545.264 260.594 656.926 289.871 680.087 350.068C716.93 444.988 757.651 474.111 825.813 504.219C858.877 524.996 868.804 447.467 923.573 437.525C978.343 427.583 1000.81 503.923 1031.95 470.437C1080.2 419.671 1124.45 402.534 1159.36 407.258C1193.28 409.864 1219.17 434.03 1231.19 468.275C1242.36 500.467 1241.22 541.458 1222.8 581.674C1185.57 634.429 1177.24 702.232 1151.23 736.108C1116.47 768.896 1162.22 803.075 1152.51 872.463C1142.8 941.851 1086.51 938.354 1103.37 988.529C1131.33 1068.49 1137.69 1123.82 1129.97 1159.53C1117.26 1240.24 1037.83 1229.13 972.568 1170.07C933.368 1135.98 903.523 1104.29 876.576 1081.79C844.283 1046.25 802.156 1118.12 761.282 1118.96C691.756 1118.82 703.113 1039.92 644.806 1075.3C620.256 1089.77 593.406 1106.65 563.694 1126.46C493.118 1170.53 440.975 1177.21 405.887 1165.92C332.588 1159.41 306.748 1079.45 322.891 1003.29C332.683 958.858 356.394 915.842 392.997 888.728C441.736 852.604 513.955 826.243 536.553 759.587C553.297 717.348 448.718 662.125 475.449 585.119C492.141 534.168 548.742 509.65 552.052 469.738C555.587 427.113 558.674 392.874 559.402 373.848Z" stroke="#E74141" stroke-opacity="0.3" stroke-width="1.19883"/>
<path d="M592.403 419.126C581.946 324.441 676.536 349.353 696.366 400.891C731.263 490.588 769.83 513.4 831.845 535.647C860.126 552.591 869.398 487.088 916.099 478.072C962.8 469.057 982.57 532.125 1009.33 504.206C1051.12 461.889 1089.22 448.579 1118.95 453.977C1147.53 456.832 1169.3 478.083 1178.97 507.739C1187.93 535.683 1186.09 570.962 1168.89 605.176C1129.93 652.041 1130.54 724.969 1109.18 757.614C1080.31 786.519 1117.47 815.898 1107.98 873.925C1098.49 931.952 1049.77 928.449 1062.42 968.957C1084.14 1034.13 1088.33 1078.8 1080.91 1107.35C1069.56 1173.93 1001.91 1163.72 945.731 1114.06C911.289 1085.22 884.293 1058.94 859.639 1041.62C831.7 1012.59 795.432 1073.31 760.058 1074.94C700.631 1075.87 708.826 1010.75 659.044 1040.7C637.425 1053.22 614.028 1067.48 588.379 1083.95C526.065 1120.54 481.316 1122.51 452.731 1109.66C391.776 1103.24 370.571 1035.57 384.543 971.163C393.217 933.228 413.654 896.567 444.991 873.353C490.122 839.897 552.616 816.113 571.839 754.207C585.904 717.339 498.29 669.392 520.234 603.275C533.803 558.893 580.676 536.566 583.574 501.641C586.642 464.652 590.458 435.2 592.403 419.126Z" stroke="#E74141" stroke-opacity="0.3" stroke-width="1.19883"/>
<path d="M626.857 464.4C620.107 388.299 697.376 408.842 713.821 451.718C746.679 536.21 782.987 552.702 838.688 567.075C862.113 580.184 870.704 526.714 909.213 518.624C947.723 510.534 964.745 560.318 987.043 537.971C1022.27 504.109 1054.12 494.632 1078.59 500.708C1101.75 503.813 1119.35 522.151 1126.64 547.216C1133.37 570.91 1130.84 600.475 1114.91 628.683C1074.32 669.66 1083.85 747.752 1067.22 779.174C1044.3 804.198 1072.77 828.774 1063.53 875.431C1054.29 922.089 1013.25 918.576 1021.67 949.409C1037.1 999.777 1039.1 1033.77 1032 1055.16C1022.05 1107.6 966.368 1098.28 919.411 1058.02C889.819 1034.45 865.744 1013.58 843.449 1001.45C819.938 978.933 789.625 1028.5 759.846 1030.92C710.674 1032.91 715.687 981.599 674.562 1006.12C655.931 1016.68 636.048 1028.31 614.533 1041.45C560.645 1070.55 523.409 1067.8 501.401 1053.37C452.951 1047.06 436.437 991.677 448.201 939.03C455.733 907.591 472.841 877.29 498.831 857.977C540.231 827.185 592.835 805.975 608.632 748.811C619.981 717.313 549.563 676.645 566.662 621.42C577.073 583.61 614.096 563.471 616.573 533.535C619.167 502.182 623.701 477.52 626.857 464.4Z" stroke="#E74141" stroke-opacity="0.3" stroke-width="1.19883"/>
<path d="M660.345 509.671C657.272 452.177 717.636 468.347 730.786 502.554C761.796 581.868 796.058 592.028 845.764 598.507C864.458 607.773 872.419 566.35 902.945 559.185C933.472 552.019 947.841 588.5 965.802 571.732C994.659 546.337 1020.43 540.7 1039.77 547.46C1057.65 550.818 1071.16 566.241 1076.12 586.714C1080.65 606.155 1077.41 630.003 1062.64 652.199C1020.19 687.288 1038.73 770.605 1026.72 800.818C1009.64 821.959 1029.58 841.729 1020.53 877.002C1011.48 912.275 977.905 908.752 982.128 929.891C991.338 965.429 991.154 988.721 984.336 1002.95C975.728 1041.23 931.705 1032.8 893.717 1001.95C868.809 983.637 847.518 968.194 827.456 961.264C808.244 945.274 783.72 983.677 759.371 986.893C720.187 989.949 722.04 952.457 689.348 971.551L688.452 972.04C672.977 980.489 656.793 989.325 639.623 998.951C593.861 1020.55 563.935 1013.06 548.391 997.047C512.188 990.826 500.279 947.751 509.899 906.877C516.331 881.941 530.205 858.005 550.988 842.598C588.896 814.461 631.899 795.824 644.356 743.386C653.049 717.261 599.452 683.876 611.796 639.552C619.102 608.316 646.469 590.361 648.54 565.415C650.674 539.702 655.956 519.832 660.345 509.671Z" stroke="#E74141" stroke-opacity="0.3" stroke-width="1.19883"/>
<path d="M694.716 557.138C695.348 518.504 738.336 530.23 748.089 555.616C777.018 629.393 808.978 633.178 852.31 631.738C866.13 637.121 873.399 607.928 895.706 601.718C918.012 595.509 929.618 618.528 943.103 607.412C965.366 590.595 984.863 588.823 998.927 596.235C1011.37 599.831 1020.7 612.271 1023.27 628.059C1025.57 643.162 1021.64 661.186 1008.16 677.273C964.153 706.318 991.573 794.477 984.284 823.343C973.178 840.506 984.421 855.383 975.633 879.117C966.845 902.85 940.989 899.333 940.98 910.687C943.894 931.24 941.527 943.735 935.039 950.726C927.839 974.677 895.818 967.181 867.093 945.877C847.061 932.912 828.717 922.958 811.039 921.26C796.274 911.865 777.728 938.933 758.998 942.93C730.108 947.039 728.781 923.531 704.777 937.11C692.035 943.708 679.09 950.026 665.738 956.461C628.453 970.466 606.07 958.277 597.112 940.746C573.442 934.648 566.233 904.071 573.635 875.149C578.919 856.827 589.45 839.362 604.865 827.928C638.996 802.574 672.065 786.593 681.085 739.119C687.054 718.482 650.698 692.528 658.189 659.301C662.331 634.778 679.827 619.089 681.476 599.244C683.133 579.286 689.124 564.297 694.716 557.138Z" stroke="#E74141" stroke-opacity="0.3" stroke-width="1.19883"/>
<path d="M729.595 602.471C733.914 582.561 759.664 589.88 766.05 606.523C792.944 674.931 822.651 672.367 859.695 663.029C868.681 664.552 875.272 647.492 889.426 642.224C903.579 636.955 912.449 646.599 921.497 641.097C937.227 632.797 950.501 634.874 959.33 642.952C966.387 646.792 971.554 656.283 971.769 667.434C971.843 678.242 967.227 690.496 955.006 700.524C909.395 723.603 945.689 816.768 943.09 844.35C937.914 857.584 940.517 867.612 931.977 879.889C923.436 892.167 905.231 888.648 901.011 890.269C897.664 895.926 893.12 897.681 886.952 897.475C881.145 907.189 861.03 900.606 841.486 888.777C826.282 881.116 810.847 876.613 795.519 880.128C785.162 877.289 772.543 893.112 759.382 897.894C740.698 903.063 736.206 893.448 720.818 901.555C711.051 906.174 701.605 909.84 692.366 912.921C663.47 919.383 648.564 902.481 646.151 883.406C634.924 877.419 632.383 859.238 637.587 842.174C641.734 830.407 648.953 819.359 659.044 811.862C689.458 789.232 712.683 775.866 718.293 733.244C721.56 718.037 702.316 699.438 704.986 677.209C705.985 659.329 713.68 645.866 714.91 631.066C716.095 616.805 722.8 606.65 729.595 602.471Z" stroke="#E74141" stroke-opacity="0.3" stroke-width="1.19883"/>
</svg>
